<svg width="250" height="250" viewBox="0 0 250 250" fill="none" xmlns="http://www.w3.org/2000/svg">
<path d="M183.79 65.685C181.935 64.685 181.09 65.515 180.415 64.685C179.74 63.855 182.27 61.65 177.215 59.46C177.215 59.46 176.88 54.74 169.97 54.575C163.06 54.41 164.915 59.29 163.06 60.47C161.205 61.65 160.7 59.8 158.845 60.97C156.99 62.14 157.845 64.51 156.32 64.85C154.795 65.19 152.78 63.35 150.925 64.51C149.07 65.67 149.07 66.7 148.23 66.7C147.39 66.7 145.7 66.03 144.69 66.7C143.68 67.37 142.5 68.2 142.5 68.2H185.135C185.135 68.2 185.64 66.695 183.79 65.685Z" fill="#FE7622"/>
<path opacity="0.8" d="M183.79 65.685C181.935 64.685 181.09 65.515 180.415 64.685C179.74 63.855 182.27 61.65 177.215 59.46C177.215 59.46 176.88 54.74 169.97 54.575C163.06 54.41 164.915 59.29 163.06 60.47C161.205 61.65 160.7 59.8 158.845 60.97C156.99 62.14 157.845 64.51 156.32 64.85C154.795 65.19 152.78 63.35 150.925 64.51C149.07 65.67 149.07 66.7 148.23 66.7C147.39 66.7 145.7 66.03 144.69 66.7C143.68 67.37 142.5 68.2 142.5 68.2H185.135C185.135 68.2 185.64 66.695 183.79 65.685Z" fill="white"/>
<path d="M150.345 49.335C147.46 47.76 146.145 49.07 145.095 47.76C144.045 46.45 147.985 43.035 140.095 39.62C140.095 39.62 139.57 32.27 128.805 32.005C118.04 31.74 120.925 39.36 118.04 41.195C115.155 43.03 114.38 40.145 111.5 42C108.62 43.855 109.915 47.5 107.55 48C105.185 48.5 102.05 45.64 99.15 47.475C96.25 49.31 96.265 50.89 94.95 50.89C93.635 50.89 91.01 49.84 89.45 50.89C87.89 51.94 86.04 53.255 86.04 53.255H152.45C152.45 53.255 153.235 50.91 150.345 49.335Z" fill="#FE7622"/>
<path opacity="0.8" d="M150.345 49.335C147.46 47.76 146.145 49.07 145.095 47.76C144.045 46.45 147.985 43.035 140.095 39.62C140.095 39.62 139.57 32.27 128.805 32.005C118.04 31.74 120.925 39.36 118.04 41.195C115.155 43.03 114.38 40.145 111.5 42C108.62 43.855 109.915 47.5 107.55 48C105.185 48.5 102.05 45.64 99.15 47.475C96.25 49.31 96.265 50.89 94.95 50.89C93.635 50.89 91.01 49.84 89.45 50.89C87.89 51.94 86.04 53.255 86.04 53.255H152.45C152.45 53.255 153.235 50.91 150.345 49.335Z" fill="white"/>
<path d="M30.5 168.7C30.5 168.7 51.85 170.815 62.67 184.045C62.67 184.045 74.1 168.715 94.635 169.045C99.6552 162.993 102.853 155.64 103.856 147.841C104.859 140.043 103.626 132.12 100.3 124.995C96.9739 117.87 91.6925 111.837 85.0704 107.597C78.4484 103.358 70.7582 101.087 62.8954 101.049C55.0326 101.011 47.3209 103.207 40.6581 107.382C33.9954 111.558 28.6559 117.54 25.2614 124.632C21.8669 131.725 20.5571 139.635 21.4845 147.443C22.412 155.251 25.5385 162.635 30.5 168.735V168.7Z" fill="#FE7622"/>
<path opacity="0.5" d="M30.5 168.7C30.5 168.7 51.85 170.815 62.67 184.045C62.67 184.045 74.1 168.715 94.635 169.045C99.6552 162.993 102.853 155.64 103.856 147.841C104.859 140.043 103.626 132.12 100.3 124.995C96.9739 117.87 91.6925 111.837 85.0704 107.597C78.4484 103.358 70.7582 101.087 62.8954 101.049C55.0326 101.011 47.3209 103.207 40.6581 107.382C33.9954 111.558 28.6559 117.54 25.2614 124.632C21.8669 131.725 20.5571 139.635 21.4845 147.443C22.412 155.251 25.5385 162.635 30.5 168.735V168.7Z" fill="white"/>
<path d="M83.205 144.7C83.205 144.7 70.44 147.725 63.395 157.985L62.995 143.06L63.025 143.26C63.025 143.26 70.23 130.285 83.205 126.325C83.205 126.325 69.845 129.49 62.92 140.325L61.92 103.97L61.615 149.035C54.855 138.73 42.5 135.69 42.5 135.69C53.425 139.15 60.11 149.47 61.635 152.04L61.535 166.885C54.71 156.715 42.5 153.71 42.5 153.71C53.165 157.085 59.785 166.995 61.5 169.86L61.22 211H64.825L63.95 178.5C66.275 175 72.95 166.195 83.205 163.055C83.205 163.055 71 165.95 63.875 175.675L63.475 160.865C65.23 158.07 72.105 148.09 83.205 144.7Z" fill="#263238"/>
<path opacity="0.3" d="M83.205 144.7C83.205 144.7 70.44 147.725 63.395 157.985L62.995 143.06L63.025 143.26C63.025 143.26 70.23 130.285 83.205 126.325C83.205 126.325 69.845 129.49 62.92 140.325L61.92 103.97L61.615 149.035C54.855 138.73 42.5 135.69 42.5 135.69C53.425 139.15 60.11 149.47 61.635 152.04L61.535 166.885C54.71 156.715 42.5 153.71 42.5 153.71C53.165 157.085 59.785 166.995 61.5 169.86L61.22 211H64.825L63.95 178.5C66.275 175 72.95 166.195 83.205 163.055C83.205 163.055 71 165.95 63.875 175.675L63.475 160.865C65.23 158.07 72.105 148.09 83.205 144.7Z" fill="white"/>
<path d="M152.265 168.7C152.265 168.7 173.615 170.815 184.435 184.045C184.435 184.045 195.865 168.715 216.4 169.045C221.418 162.992 224.613 155.638 225.614 147.839C226.614 140.041 225.379 132.118 222.051 124.995C218.723 117.871 213.441 111.839 206.818 107.602C200.195 103.364 192.504 101.095 184.642 101.059C176.78 101.023 169.069 103.221 162.407 107.398C155.745 111.574 150.407 117.557 147.014 124.65C143.621 131.742 142.313 139.653 143.242 147.461C144.17 155.268 147.298 162.651 152.26 168.75L152.265 168.7Z" fill="#FE7622"/>
<path opacity="0.5" d="M152.265 168.7C152.265 168.7 173.615 170.815 184.435 184.045C184.435 184.045 195.865 168.715 216.4 169.045C221.418 162.992 224.613 155.638 225.614 147.839C226.614 140.041 225.379 132.118 222.051 124.995C218.723 117.871 213.441 111.839 206.818 107.602C200.195 103.364 192.504 101.095 184.642 101.059C176.78 101.023 169.069 103.221 162.407 107.398C155.745 111.574 150.407 117.557 147.014 124.65C143.621 131.742 142.313 139.653 143.242 147.461C144.17 155.268 147.298 162.651 152.26 168.75L152.265 168.7Z" fill="white"/>
<path d="M205 144.7C205 144.7 192.235 147.725 185.195 157.985L184.79 143.06L184.82 143.26C184.82 143.26 192 130.285 205 126.325C205 126.325 191.645 129.49 184.72 140.325L183.72 103.97L183.415 149.035C176.63 138.72 164.26 135.68 164.26 135.68C175.185 139.14 181.87 149.46 183.395 152.03L183.295 166.875C176.485 156.705 164.26 153.7 164.26 153.7C174.925 157.075 181.55 166.985 183.26 169.85L183 211H186.6L185.725 178.5C188.05 175 194.725 166.195 204.98 163.055C204.98 163.055 192.775 165.95 185.65 175.675L185.25 160.865C187 158.07 193.89 148.09 205 144.7Z" fill="#263238"/>
<path opacity="0.3" d="M205 144.7C205 144.7 192.235 147.725 185.195 157.985L184.79 143.06L184.82 143.26C184.82 143.26 192 130.285 205 126.325C205 126.325 191.645 129.49 184.72 140.325L183.72 103.97L183.415 149.035C176.63 138.72 164.26 135.68 164.26 135.68C175.185 139.14 181.87 149.46 183.395 152.03L183.295 166.875C176.485 156.705 164.26 153.7 164.26 153.7C174.925 157.075 181.55 166.985 183.26 169.85L183 211H186.6L185.725 178.5C188.05 175 194.725 166.195 204.98 163.055C204.98 163.055 192.775 165.95 185.65 175.675L185.25 160.865C187 158.07 193.89 148.09 205 144.7Z" fill="white"/>
<path d="M103.555 149.05C103.555 149.05 102.185 164.05 102.46 170.095C102.735 176.14 104.84 198.735 104.84 200.75C104.9 202.557 105.052 204.359 105.295 206.15H108.04C108.04 206.15 109.415 196.45 109.415 190.41C109.415 184.37 110.33 163.05 110.33 163.05L111.245 163.595C111.245 163.595 111.52 199.745 111.335 201.595C111.234 203.148 111.234 204.707 111.335 206.26L113.9 206.445C113.9 206.445 117.56 190.795 117.65 186.13C117.74 181.465 118.565 170.025 119.115 164.805C119.665 159.585 120.67 151.54 120.58 149.985C120.49 148.43 118.475 148.155 118.475 148.155C118.475 148.155 111.885 147.51 108.225 146.69C104.565 145.87 103.65 147.31 103.555 149.05Z" fill="#263238" stroke="#263238" stroke-linecap="round" stroke-linejoin="round"/>
<path d="M117.465 123.7L115.82 123.515C115.82 123.515 109.87 121.595 108.775 121.87C107.68 122.145 100.72 134.87 100.72 134.87L103.925 138.71C103.925 138.71 102.925 148.41 103.555 149.055C104.185 149.7 109.87 150.79 113.165 151.155C115.635 151.43 120.12 150.7 120.58 149.97C121.04 149.24 121.86 144.57 121.86 144.57L126.07 145.12C126.07 145.12 128.265 131.485 128.355 130.75C128.445 130.015 128.995 129.285 128.175 128.75C127.355 128.215 119.205 124.08 119.205 124.08L117.465 123.7Z" fill="#263238" stroke="#263238" stroke-linecap="round" stroke-linejoin="round"/>
<path d="M112.25 122.5C112.25 122.5 110.33 123.69 107.95 129.365C105.867 134.089 104.599 139.132 104.2 144.28C103.65 149.78 103.01 166.24 103.01 166.24C104.931 167.339 106.994 168.17 109.14 168.71C112.34 169.445 118.015 169.08 118.015 169.08C118.015 169.08 117.925 150.32 119.755 141.715C120.818 136.644 122.35 131.683 124.33 126.895L122.865 126.07L118.565 135.77L108.955 131.195C108.955 131.195 111.52 124.15 113.455 122.775L112.25 122.5Z" fill="#FE7622" stroke="#263238" stroke-linecap="round" stroke-linejoin="round"/>
<path d="M119.205 124.065L117.465 123.7L115.82 123.515L115.625 123.455C114.75 124.07 112.96 125.585 112.89 127.725C112.8 130.565 115.27 131.225 117.74 129.83C119.51 128.83 121.085 126.605 121.84 125.405L119.205 124.065Z" fill="white" stroke="#263238" stroke-linecap="round" stroke-linejoin="round"/>
<path d="M117.36 121.5C117.36 121.5 117.3 121.675 117.205 121.935C116.947 122.713 116.6 123.458 116.17 124.155C115.715 124.705 113.99 125.83 113.99 127.475C113.99 129.12 117.19 129.4 118.655 127.845C120.12 126.29 122.41 118.6 122.41 118.6L117.36 121.5Z" fill="white" stroke="#263238" stroke-linecap="round" stroke-linejoin="round"/>
<path d="M114.815 110.25C114.815 110.25 114.08 114.275 114.265 116.47C114.45 118.665 115.265 121.87 116.265 122.235C117.265 122.6 120.84 120.59 121.765 119.765C122.69 118.94 123.965 116.655 123.965 116.655C123.965 116.655 125.795 113.36 125.795 111.44C125.795 109.52 125.43 106.77 123.23 105.94C121.03 105.11 116.55 104.12 114.815 110.25Z" fill="white" stroke="#263238" stroke-linecap="round" stroke-linejoin="round"/>
<path d="M117.56 113.36C117.347 113.634 117.1 113.879 116.825 114.09C116.275 114.55 114.995 114.64 115.18 114.915C115.69 115.308 116.241 115.644 116.825 115.915" stroke="#263238" stroke-linecap="round" stroke-linejoin="round"/>
<path d="M115.91 116.93C115.91 116.93 117.01 118.025 119.41 117.11C119.41 117.11 118.41 120.15 117.055 119.61C115.7 119.07 115.91 116.93 115.91 116.93Z" stroke="#263238" stroke-linecap="round" stroke-linejoin="round"/>
<path d="M120.5 114C120.425 114.395 120.185 114.685 119.96 114.645C119.735 114.605 119.615 114.245 119.69 113.85C119.765 113.455 120.005 113.165 120.225 113.205C120.445 113.245 120.555 113.585 120.5 114Z" fill="#263238"/>
<path d="M116.82 113.07C116.745 113.465 116.505 113.755 116.28 113.715C116.055 113.675 115.935 113.315 116.01 112.92C116.085 112.525 116.325 112.235 116.545 112.275C116.765 112.315 116.89 112.67 116.82 113.07Z" fill="#263238"/>
<path d="M125.7 113.725L114.815 110.25C114.983 109.118 115.291 108.012 115.73 106.955C116.55 104.76 117.65 103.75 118.38 103.57C119.11 103.39 122.88 103.75 124.88 104.94C125.675 105.348 126.303 106.021 126.654 106.843C127.004 107.665 127.056 108.584 126.8 109.44C126.435 111 125.7 113.725 125.7 113.725Z" fill="#FE7622" stroke="#263238" stroke-linecap="round" stroke-linejoin="round"/>
<path d="M108.775 108.97C108.775 108.97 107.035 108.785 107.675 110.065C108.315 111.345 112.175 111.62 112.985 111.065C113.795 110.51 110.88 109.24 108.775 108.97Z" fill="#FE7622" stroke="#263238" stroke-linecap="round" stroke-linejoin="round"/>
<path d="M121.95 112.535C120.036 112.81 118.09 112.78 116.185 112.445C112.89 111.895 109.87 109.15 108.775 108.97C107.68 108.79 111.46 109.315 113.575 109.645C117.38 110.245 121.95 112.535 121.95 112.535Z" fill="#FE7622" stroke="#263238" stroke-linecap="round" stroke-linejoin="round"/>
<path d="M123.87 114.185C123.87 114.185 125.61 112.63 126.07 113.635C126.53 114.64 126.07 116.635 124.695 117.11C123.32 117.585 123.14 116.93 123.14 116.93" fill="white"/>
<path d="M123.87 114.185C123.87 114.185 125.61 112.63 126.07 113.635C126.53 114.64 126.07 116.635 124.695 117.11C123.32 117.585 123.14 116.93 123.14 116.93" stroke="#263238" stroke-linecap="round" stroke-linejoin="round"/>
<path d="M126.07 145.115C126.07 145.115 114.445 138.525 113.44 138C112.435 137.475 111.795 137 111.61 136C111.425 135 111.245 134.17 110.235 133.35C109.225 132.53 108.865 131.35 108.5 131.975C108.135 132.6 108.775 133.075 109.05 133.44C109.252 133.839 109.376 134.274 109.415 134.72L105.915 133.805C104.545 133.44 102.62 132.615 103.08 133.165C103.54 133.715 105 134.72 105.185 135.165C105.708 136.045 106.513 136.721 107.47 137.085C108.57 137.45 110.035 137.91 110.035 137.91C110.035 137.91 115.89 143.49 118.27 145.41C120.65 147.33 122.935 149.62 124.4 149.53C125.865 149.44 126.525 146.67 126.07 145.115Z" fill="white" stroke="#263238" stroke-linecap="round" stroke-linejoin="round"/>
<path d="M103.925 138.705C103.925 138.705 99.075 132.395 97.885 128.735C96.695 125.075 95.415 121.96 95.045 120.59C94.675 119.22 92.485 116.38 91.845 114.915C91.205 113.45 90.745 114.55 90.93 115.19C91.115 115.83 92.025 117.845 92.025 117.845H87.36C86.08 117.845 84.36 117.48 84.98 118.485C85.6 119.49 87.545 120.865 89.01 121.485C90.475 122.105 93.765 122.215 93.765 122.215C93.765 122.215 94.955 129.995 96.33 133.745C97.705 137.495 99.625 142.245 101.18 142.165C102.735 142.085 104.18 138.96 104.18 138.96L103.925 138.705Z" fill="white" stroke="#263238" stroke-linecap="round" stroke-linejoin="round"/>
<path d="M83.61 116.565L86.17 114.46L95.69 117.935L94.77 119.95L83.61 116.565Z" fill="white" stroke="#263238" stroke-linecap="round" stroke-linejoin="round"/>
<path d="M84.345 116.3C85.16 117.625 86.845 118.115 88.175 118.705C89.8465 119.521 91.6909 119.919 93.55 119.865C95.335 119.74 96.575 117.905 95.17 116.41C94.04 115.205 91.205 115.185 88.725 114.31C87.61 113.915 86.145 113.38 84.95 113.675C83.65 114 83.77 115.36 84.345 116.3Z" fill="#FE7622" stroke="#263238" stroke-linecap="round" stroke-linejoin="round"/>
<path d="M84.5 114.8C85.2781 114.858 86.0348 115.082 86.72 115.455C87.955 116.1 92.03 117.395 93.435 117.9C94.84 118.405 94.035 118.96 95.41 119.175C95.41 119.175 96.295 118.95 96.185 118.325C96.075 117.7 94.815 116.985 93.095 116.395C91.375 115.805 88.2 114.895 86.79 114.325C85.38 113.755 84.465 113.265 83.7 113.58C82.935 113.895 83.5 114.665 84.5 114.8Z" fill="#263238" stroke="#263238" stroke-linecap="round" stroke-linejoin="round"/>
<path d="M83.61 116.565L85.44 118.395L92.85 121.23L94.77 119.95L83.61 116.565Z" fill="white" stroke="#263238" stroke-linecap="round" stroke-linejoin="round"/>
<path d="M105.295 206.15C105.295 206.15 99.915 209.845 98.67 210.2C97.425 210.555 98.67 211.265 99.735 211.265H107.895L108.04 206.15H105.295Z" fill="white" stroke="#263238" stroke-linecap="round" stroke-linejoin="round"/>
<path d="M107.92 210.5H98.18C98 210.855 98.92 211.27 99.735 211.27H107.895L107.92 210.5Z" fill="white" stroke="#263238" stroke-linecap="round" stroke-linejoin="round"/>
<path d="M113.67 206.15C113.67 206.15 119.055 209.845 120.295 210.2C121.535 210.555 120.295 211.265 119.23 211.265H111.07L111.32 206.15H113.67Z" fill="white" stroke="#263238" stroke-linecap="round" stroke-linejoin="round"/>
<path d="M120.79 210.5H111.11L111.07 211.27H119.23C120.05 211.265 120.965 210.85 120.79 210.5Z" fill="white" stroke="#263238" stroke-linecap="round" stroke-linejoin="round"/>
<path d="M133.06 129.17H130.685C130.287 129.17 129.965 129.492 129.965 129.89V135.27C129.965 135.668 130.287 135.99 130.685 135.99H133.06C133.458 135.99 133.78 135.668 133.78 135.27V129.89C133.78 129.492 133.458 129.17 133.06 129.17Z" fill="white" stroke="#263238" stroke-linecap="round" stroke-linejoin="round"/>
<path d="M137.335 129.17H134.96C134.562 129.17 134.24 129.492 134.24 129.89V135.27C134.24 135.668 134.562 135.99 134.96 135.99H137.335C137.733 135.99 138.055 135.668 138.055 135.27V129.89C138.055 129.492 137.733 129.17 137.335 129.17Z" fill="#263238" stroke="#263238" stroke-linecap="round" stroke-linejoin="round"/>
<path d="M135.12 122.205H132.745C132.347 122.205 132.025 122.527 132.025 122.925V128.305C132.025 128.703 132.347 129.025 132.745 129.025H135.12C135.518 129.025 135.84 128.703 135.84 128.305V122.925C135.84 122.527 135.518 122.205 135.12 122.205Z" fill="white" stroke="#263238" stroke-linecap="round" stroke-linejoin="round"/>
<path d="M139.465 122.205H137.09C136.692 122.205 136.37 122.527 136.37 122.925V128.305C136.37 128.703 136.692 129.025 137.09 129.025H139.465C139.863 129.025 140.185 128.703 140.185 128.305V122.925C140.185 122.527 139.863 122.205 139.465 122.205Z" fill="#FE7622" stroke="#263238" stroke-linecap="round" stroke-linejoin="round"/>
<path d="M170.99 122.205H168.615C168.217 122.205 167.895 122.527 167.895 122.925V128.305C167.895 128.703 168.217 129.025 168.615 129.025H170.99C171.388 129.025 171.71 128.703 171.71 128.305V122.925C171.71 122.527 171.388 122.205 170.99 122.205Z" fill="#FE7622" stroke="#263238" stroke-linecap="round" stroke-linejoin="round"/>
<path d="M175.335 122.205H172.96C172.562 122.205 172.24 122.527 172.24 122.925V128.305C172.24 128.703 172.562 129.025 172.96 129.025H175.335C175.733 129.025 176.055 128.703 176.055 128.305V122.925C176.055 122.527 175.733 122.205 175.335 122.205Z" fill="#263238" stroke="#263238" stroke-linecap="round" stroke-linejoin="round"/>
<path d="M143.81 122.205H141.435C141.037 122.205 140.715 122.527 140.715 122.925V128.305C140.715 128.703 141.037 129.025 141.435 129.025H143.81C144.208 129.025 144.53 128.703 144.53 128.305V122.925C144.53 122.527 144.208 122.205 143.81 122.205Z" fill="white" stroke="#263238" stroke-linecap="round" stroke-linejoin="round"/>
<path d="M148.155 122.205H145.78C145.382 122.205 145.06 122.527 145.06 122.925V128.305C145.06 128.703 145.382 129.025 145.78 129.025H148.155C148.553 129.025 148.875 128.703 148.875 128.305V122.925C148.875 122.527 148.553 122.205 148.155 122.205Z" fill="#263238" stroke="#263238" stroke-linecap="round" stroke-linejoin="round"/>
<path d="M152.5 122.205H150.125C149.727 122.205 149.405 122.527 149.405 122.925V128.305C149.405 128.703 149.727 129.025 150.125 129.025H152.5C152.898 129.025 153.22 128.703 153.22 128.305V122.925C153.22 122.527 152.898 122.205 152.5 122.205Z" fill="#FE7622" stroke="#263238" stroke-linecap="round" stroke-linejoin="round"/>
<path d="M141.615 129.17H139.24C138.842 129.17 138.52 129.492 138.52 129.89V135.27C138.52 135.668 138.842 135.99 139.24 135.99H141.615C142.013 135.99 142.335 135.668 142.335 135.27V129.89C142.335 129.492 142.013 129.17 141.615 129.17Z" fill="white" stroke="#263238" stroke-linecap="round" stroke-linejoin="round"/>
<path d="M145.89 129.17H143.515C143.117 129.17 142.795 129.492 142.795 129.89V135.27C142.795 135.668 143.117 135.99 143.515 135.99H145.89C146.288 135.99 146.61 135.668 146.61 135.27V129.89C146.61 129.492 146.288 129.17 145.89 129.17Z" fill="#FE7622" stroke="#263238" stroke-linecap="round" stroke-linejoin="round"/>
<path d="M150.17 129.17H147.795C147.397 129.17 147.075 129.492 147.075 129.89V135.27C147.075 135.668 147.397 135.99 147.795 135.99H150.17C150.568 135.99 150.89 135.668 150.89 135.27V129.89C150.89 129.492 150.568 129.17 150.17 129.17Z" fill="white" stroke="#263238" stroke-linecap="round" stroke-linejoin="round"/>
<path d="M154.445 129.17H152.07C151.672 129.17 151.35 129.492 151.35 129.89V135.27C151.35 135.668 151.672 135.99 152.07 135.99H154.445C154.843 135.99 155.165 135.668 155.165 135.27V129.89C155.165 129.492 154.843 129.17 154.445 129.17Z" fill="white" stroke="#263238" stroke-linecap="round" stroke-linejoin="round"/>
<path d="M158.725 129.17H156.35C155.952 129.17 155.63 129.492 155.63 129.89V135.27C155.63 135.668 155.952 135.99 156.35 135.99H158.725C159.123 135.99 159.445 135.668 159.445 135.27V129.89C159.445 129.492 159.123 129.17 158.725 129.17Z" fill="white" stroke="#263238" stroke-linecap="round" stroke-linejoin="round"/>
<path d="M168.805 129.17H166.43C166.032 129.17 165.71 129.492 165.71 129.89V135.27C165.71 135.668 166.032 135.99 166.43 135.99H168.805C169.203 135.99 169.525 135.668 169.525 135.27V129.89C169.525 129.492 169.203 129.17 168.805 129.17Z" fill="#263238" stroke="#263238" stroke-linecap="round" stroke-linejoin="round"/>
<path d="M173.08 129.17H170.705C170.307 129.17 169.985 129.492 169.985 129.89V135.27C169.985 135.668 170.307 135.99 170.705 135.99H173.08C173.478 135.99 173.8 135.668 173.8 135.27V129.89C173.8 129.492 173.478 129.17 173.08 129.17Z" fill="#FE7622" stroke="#263238" stroke-linecap="round" stroke-linejoin="round"/>
<path d="M177.3 129.17H174.925C174.527 129.17 174.205 129.492 174.205 129.89V135.27C174.205 135.668 174.527 135.99 174.925 135.99H177.3C177.698 135.99 178.02 135.668 178.02 135.27V129.89C178.02 129.492 177.698 129.17 177.3 129.17Z" fill="#263238" stroke="#263238" stroke-linecap="round" stroke-linejoin="round"/>
<path d="M103.1 150.065H100.725C100.327 150.065 100.005 150.387 100.005 150.785V156.165C100.005 156.563 100.327 156.885 100.725 156.885H103.1C103.498 156.885 103.82 156.563 103.82 156.165V150.785C103.82 150.387 103.498 150.065 103.1 150.065Z" fill="white" stroke="#263238" stroke-linecap="round" stroke-linejoin="round"/>
<path d="M107.445 150.065H105.07C104.672 150.065 104.35 150.387 104.35 150.785V156.165C104.35 156.563 104.672 156.885 105.07 156.885H107.445C107.843 156.885 108.165 156.563 108.165 156.165V150.785C108.165 150.387 107.843 150.065 107.445 150.065Z" fill="#FE7622" stroke="#263238" stroke-linecap="round" stroke-linejoin="round"/>
<path d="M111.79 150.065H109.415C109.017 150.065 108.695 150.387 108.695 150.785V156.165C108.695 156.563 109.017 156.885 109.415 156.885H111.79C112.188 156.885 112.51 156.563 112.51 156.165V150.785C112.51 150.387 112.188 150.065 111.79 150.065Z" fill="white" stroke="#263238" stroke-linecap="round" stroke-linejoin="round"/>
<path d="M116.135 150.065H113.76C113.362 150.065 113.04 150.387 113.04 150.785V156.165C113.04 156.563 113.362 156.885 113.76 156.885H116.135C116.533 156.885 116.855 156.563 116.855 156.165V150.785C116.855 150.387 116.533 150.065 116.135 150.065Z" fill="#263238" stroke="#263238" stroke-linecap="round" stroke-linejoin="round"/>
<path d="M120.475 150.065H118.1C117.702 150.065 117.38 150.387 117.38 150.785V156.165C117.38 156.563 117.702 156.885 118.1 156.885H120.475C120.873 156.885 121.195 156.563 121.195 156.165V150.785C121.195 150.387 120.873 150.065 120.475 150.065Z" fill="#FE7622" stroke="#263238" stroke-linecap="round" stroke-linejoin="round"/>
<path d="M90.9593 209.641C93.4176 207.182 93.4176 203.197 90.9593 200.738C88.5009 198.28 84.5152 198.28 82.0568 200.738C79.5985 203.197 79.5985 207.182 82.0568 209.641C84.5152 212.099 88.5009 212.099 90.9593 209.641Z" fill="#263238" stroke="#263238" stroke-linecap="round" stroke-linejoin="round"/>
<path d="M90.7414 206.942C91.7157 204.605 90.6109 201.921 88.2736 200.946C85.9363 199.972 83.2517 201.077 82.2774 203.414C81.303 205.751 82.4079 208.436 84.7452 209.41C87.0824 210.385 89.767 209.28 90.7414 206.942Z" fill="white" stroke="#263238" stroke-linecap="round" stroke-linejoin="round"/>
<path d="M85.1 196.075V198.36L86.51 198.895L84.815 205.78H86.51L92.52 198.645V196.075H85.1Z" fill="white" stroke="#263238" stroke-linecap="round" stroke-linejoin="round"/>
<path d="M80.28 62.36H77.995V158.97H80.28V62.36Z" fill="white" stroke="#263238" stroke-linecap="round" stroke-linejoin="round"/>
<path d="M56.885 88.83H40.96L38.97 79.235H58.875L56.885 88.83Z" fill="#263238" stroke="#263238" stroke-linecap="round" stroke-linejoin="round"/>
<path d="M117.31 88.83H101.385L99.395 79.235H119.3L117.31 88.83Z" fill="#263238" stroke="#263238" stroke-linecap="round" stroke-linejoin="round"/>
<path d="M97.05 88.83H61.22L59.23 79.235H99.04L97.05 88.83Z" fill="#FE7622" stroke="#263238" stroke-linecap="round" stroke-linejoin="round"/>
<path d="M38.965 79.235C38.965 79.235 48.545 59.65 79.08 59.65C109.615 59.65 119.3 79.235 119.3 79.235H38.965Z" fill="#263238" stroke="#263238" stroke-linecap="round" stroke-linejoin="round"/>
<path d="M58.875 79.235C58.875 79.235 62.245 68.495 79.08 59.65C79.08 59.65 94.17 66.285 99.04 79.235H58.875Z" fill="#FE7622" stroke="#263238" stroke-linecap="round" stroke-linejoin="round"/>
<path d="M157.91 74.775H155.625V161.825H157.91V74.775Z" fill="white" stroke="#263238" stroke-linecap="round" stroke-linejoin="round"/>
<path d="M134.515 102.815H118.59L116.6 93.22H136.505L134.515 102.815Z" fill="#263238" stroke="#263238" stroke-linecap="round" stroke-linejoin="round"/>
<path d="M194.945 102.815H179.02L177.03 93.22H196.935L194.945 102.815Z" fill="#263238" stroke="#263238" stroke-linecap="round" stroke-linejoin="round"/>
<path d="M174.685 102.815H138.85L136.86 93.22H176.675L174.685 102.815Z" fill="#FE7622" stroke="#263238" stroke-linecap="round" stroke-linejoin="round"/>
<path d="M116.6 93.22C116.6 93.22 126.175 73.635 156.715 73.635C187.255 73.635 196.935 93.22 196.935 93.22H116.6Z" fill="#263238" stroke="#263238" stroke-linecap="round" stroke-linejoin="round"/>
<path d="M136.5 93.22C136.5 93.22 139.87 82.48 156.71 73.635C156.71 73.635 171.795 80.27 176.67 93.22H136.5Z" fill="#FE7622" stroke="#263238" stroke-linecap="round" stroke-linejoin="round"/>
<path d="M122.185 138.665V153.855C122.186 154.22 122.114 154.581 121.975 154.918C121.836 155.255 121.631 155.561 121.374 155.819C121.116 156.077 120.81 156.281 120.473 156.42C120.136 156.559 119.775 156.631 119.41 156.63H78.17C77.8056 156.63 77.4447 156.702 77.108 156.841C76.7714 156.981 76.4655 157.185 76.2078 157.443C75.9501 157.7 75.7457 158.006 75.6062 158.343C75.4668 158.68 75.395 159.041 75.395 159.405V193.715C75.3943 194.08 75.4657 194.441 75.6049 194.778C75.7441 195.115 75.9485 195.421 76.2063 195.679C76.4641 195.937 76.7703 196.141 77.1073 196.28C77.4442 196.419 77.8054 196.491 78.17 196.49H179.08C179.445 196.491 179.806 196.419 180.143 196.28C180.48 196.141 180.786 195.937 181.044 195.679C181.301 195.421 181.506 195.115 181.645 194.778C181.784 194.441 181.856 194.08 181.855 193.715V138.665C181.856 138.3 181.784 137.939 181.645 137.602C181.506 137.265 181.301 136.959 181.044 136.701C180.786 136.443 180.48 136.239 180.143 136.1C179.806 135.961 179.445 135.889 179.08 135.89H124.96C124.224 135.89 123.518 136.182 122.998 136.703C122.477 137.223 122.185 137.929 122.185 138.665Z" fill="white" stroke="#263238" stroke-linecap="round" stroke-linejoin="round"/>
<path d="M178.68 142.825H125.3V174.475H178.68V142.825Z" fill="#FE7622"/>
<path opacity="0.5" d="M178.68 142.825H125.3V174.475H178.68V142.825Z" fill="white"/>
<path d="M132.265 160.97H78.885V192.62H132.265V160.97Z" fill="#FE7622"/>
<path opacity="0.5" d="M132.265 160.97H78.885V192.62H132.265V160.97Z" fill="white"/>
<path d="M136.12 196.49H139.475V187.85H167.085V196.49H170.44V184.425H136.12V196.49Z" fill="#263238" stroke="#263238" stroke-linecap="round" stroke-linejoin="round"/>
<path d="M136.12 182.945V199.36H139.475V186.37H167.085V199.36H170.44V182.945H136.12Z" fill="white" stroke="#263238" stroke-linecap="round" stroke-linejoin="round"/>
<path d="M153.28 211.485C159.899 211.485 165.265 206.119 165.265 199.5C165.265 192.881 159.899 187.515 153.28 187.515C146.661 187.515 141.295 192.881 141.295 199.5C141.295 206.119 146.661 211.485 153.28 211.485Z" fill="#263238" stroke="#263238" stroke-linecap="round" stroke-linejoin="round"/>
<path d="M154.635 205.637C158.021 204.886 160.157 201.532 159.405 198.146C158.654 194.76 155.3 192.624 151.914 193.376C148.528 194.127 146.392 197.481 147.144 200.867C147.895 204.253 151.249 206.389 154.635 205.637Z" fill="white" stroke="#263238" stroke-linecap="round" stroke-linejoin="round"/>
<path d="M153.28 201.785C154.542 201.785 155.565 200.762 155.565 199.5C155.565 198.238 154.542 197.215 153.28 197.215C152.018 197.215 150.995 198.238 150.995 199.5C150.995 200.762 152.018 201.785 153.28 201.785Z" fill="#263238" stroke="#263238" stroke-linecap="round" stroke-linejoin="round"/>
<path d="M127.6 160.39C127.6 160.39 125.6 154.84 130.49 151.52C135.38 148.2 145.355 151.02 152.415 148.08C159.475 145.14 165.095 142.345 170.605 144.13C176.115 145.915 177.01 151.36 174.375 154.26C171.74 157.16 147.295 160.5 139.845 160.92C132.395 161.34 127.6 160.39 127.6 160.39Z" fill="#FE7622" stroke="#263238" stroke-miterlimit="10"/>
<path d="M127.95 165C128.13 170.97 129.775 174.045 136.065 175.22C146.43 177.165 158.345 175.825 167.825 171.135C173.015 168.565 176.88 164.38 177.435 158.515C177.715 155.55 174.7 153.69 172.77 153.825C170.84 153.96 162.56 157.105 149.77 160.3C136.98 163.495 131.17 162.8 130.695 162.745C130.22 162.69 127.915 163.745 127.95 165Z" fill="#FE7622" stroke="#263238" stroke-miterlimit="10"/>
<path d="M128.915 166.445C128.915 166.445 130.09 169.215 134.24 169.83C138.39 170.445 151.785 170.5 159.74 168.265C167.695 166.03 172.6 162.265 174.645 159.38C176.69 156.495 174.195 154.795 174.195 154.795C174.195 154.795 174.815 151.755 173.665 149.875C172.515 147.995 168.395 147.05 163.03 148.755C157.665 150.46 150.275 153.635 144.125 154.255C137.975 154.875 133.745 153.935 131.075 155.23C128.405 156.525 127.625 163.665 128.915 166.445Z" fill="white"/>
<path d="M175 155.73C174.907 156.721 174.572 157.674 174.025 158.504C173.477 159.335 172.734 160.019 171.86 160.495C156.79 168.705 134.08 168.13 133.12 168.1C131.541 168.009 130.059 167.306 128.99 166.14C127.921 164.974 127.349 163.436 127.396 161.855C127.443 160.274 128.105 158.773 129.241 157.672C130.377 156.571 131.898 155.957 133.48 155.96C133.685 155.96 153.89 156.46 166.045 149.83C167.012 149.303 168.105 149.049 169.206 149.095C170.306 149.141 171.374 149.486 172.294 150.092C173.214 150.698 173.951 151.543 174.428 152.536C174.905 153.529 175.103 154.633 175 155.73Z" fill="#263238" stroke="#263238" stroke-width="2" stroke-miterlimit="10"/>
<path d="M170.64 151.21C170.632 151.31 170.607 151.408 170.565 151.5C170.466 151.684 170.309 151.829 170.117 151.913C169.926 151.996 169.712 152.013 169.51 151.96C168.575 151.75 168.235 152.205 167.51 153.525C166.955 154.55 166.27 155.825 164.79 156.07C163.31 156.315 162.29 155.755 161.395 155.26C160.57 154.805 159.86 154.41 158.76 154.56C157.66 154.71 156.94 155.48 155.98 156.46C154.93 157.54 153.735 158.76 151.825 159.375C149.16 160.23 147.945 159.13 146.875 158.165C146.34 157.62 145.707 157.181 145.01 156.87C143.13 156.12 134.275 159.485 133.38 160.09C133.319 160.127 133.251 160.151 133.18 160.159C133.11 160.168 133.038 160.161 132.97 160.14C132.793 160.108 132.629 160.023 132.5 159.897C132.372 159.771 132.284 159.609 132.248 159.432C132.213 159.255 132.231 159.072 132.301 158.906C132.371 158.74 132.489 158.598 132.64 158.5C133.18 158.17 142.75 154.1 145.64 155.26C146.529 155.644 147.338 156.192 148.025 156.875C149.025 157.775 149.565 158.27 151.28 157.72C152.78 157.22 153.78 156.22 154.725 155.25C155.775 154.18 156.855 153.07 158.51 152.84C159.813 152.693 161.125 153.011 162.215 153.74C162.995 154.17 163.61 154.51 164.49 154.36C165.09 154.26 165.445 153.665 165.965 152.7C166.61 151.505 167.585 149.7 169.965 150.29C170.17 150.335 170.352 150.454 170.476 150.623C170.6 150.792 170.658 151.001 170.64 151.21Z" fill="white" stroke="#263238" stroke-miterlimit="10"/>
<path d="M171.455 152.675C171.458 152.722 171.458 152.768 171.455 152.815C171.431 152.933 171.383 153.044 171.315 153.144C171.247 153.243 171.16 153.327 171.059 153.393C170.958 153.458 170.845 153.502 170.727 153.523C170.609 153.544 170.487 153.541 170.37 153.515C169.37 153.255 169.01 153.745 168.255 155.22C167.685 156.34 166.97 157.72 165.445 158.02C163.92 158.32 162.885 157.69 161.945 157.15C161.1 156.65 160.375 156.235 159.245 156.405C158.115 156.575 157.365 157.405 156.375 158.495C155.29 159.68 154.055 161.02 152.085 161.7C149.34 162.65 148.085 161.46 147.005 160.41C146.465 159.824 145.816 159.349 145.095 159.01C143.275 158.245 134.645 161.54 133.445 162.33C133.346 162.396 133.234 162.441 133.117 162.461C133 162.482 132.88 162.478 132.764 162.45C132.649 162.422 132.54 162.37 132.446 162.298C132.351 162.225 132.272 162.134 132.215 162.03C132.095 161.814 132.059 161.561 132.114 161.32C132.17 161.079 132.312 160.867 132.515 160.725C133.065 160.36 142.79 156 145.77 157.25C146.69 157.669 147.518 158.263 148.21 159C149.21 159.975 149.785 160.5 151.55 159.9C153.095 159.365 154.12 158.255 155.105 157.18C156.19 156.005 157.31 154.79 159.01 154.53C160.71 154.27 161.885 154.945 162.815 155.49C163.615 155.95 164.245 156.32 165.145 156.15C165.765 156.04 166.145 155.39 166.675 154.33C167.345 153.025 168.36 151.045 170.795 151.675C171.006 151.736 171.188 151.871 171.309 152.054C171.43 152.237 171.482 152.457 171.455 152.675Z" fill="white" stroke="#263238" stroke-miterlimit="10"/>
<path d="M171.655 155.58C171.652 155.624 171.644 155.668 171.63 155.71C171.569 155.936 171.421 156.129 171.219 156.247C171.017 156.365 170.777 156.398 170.55 156.34C169.55 156.095 169.185 156.54 168.44 157.885C167.875 158.91 167.17 160.185 165.64 160.425C164.11 160.665 163.065 160.1 162.14 159.6C161.29 159.145 160.555 158.75 159.42 158.895C158.285 159.04 157.545 159.81 156.56 160.79C155.475 161.865 154.25 163.08 152.275 163.69C149.525 164.535 148.275 163.435 147.16 162.465C146.603 161.915 145.949 161.475 145.23 161.165C143.29 160.405 134.315 163.76 133.385 164.36C133.332 164.398 133.272 164.424 133.208 164.436C133.144 164.448 133.078 164.446 133.015 164.43C132.015 164.155 131.99 163.145 132.62 162.77C133.17 162.44 142.89 158.385 145.89 159.555C146.808 159.938 147.645 160.489 148.36 161.18C149.39 162.085 149.955 162.58 151.725 162.035C153.275 161.56 154.29 160.535 155.275 159.575C156.35 158.505 157.465 157.4 159.17 157.175C160.515 157.03 161.869 157.351 163.005 158.085C163.81 158.52 164.445 158.86 165.35 158.715C165.97 158.615 166.35 158.025 166.85 157.06C167.515 155.865 168.515 154.06 170.965 154.655C171.172 154.7 171.356 154.819 171.483 154.989C171.61 155.159 171.671 155.369 171.655 155.58Z" fill="white" stroke="#263238" stroke-miterlimit="10"/>
<path d="M109.225 183.76C108.883 183.758 108.55 183.658 108.264 183.47C107.979 183.283 107.754 183.016 107.617 182.703C107.48 182.391 107.436 182.045 107.492 181.708C107.548 181.371 107.7 181.057 107.93 180.805C108.93 179.71 109.8 177.1 109.43 174.805C109.307 173.937 108.979 173.11 108.474 172.393C107.969 171.676 107.301 171.089 106.525 170.68C101.71 167.985 96.65 170.58 96.6 170.605C96.3947 170.722 96.1681 170.796 95.9336 170.823C95.6991 170.85 95.4615 170.83 95.2349 170.764C95.0084 170.697 94.7975 170.586 94.6149 170.436C94.4322 170.287 94.2816 170.102 94.1718 169.893C94.0621 169.684 93.9956 169.455 93.9762 169.22C93.9568 168.984 93.9849 168.747 94.0589 168.523C94.1329 168.299 94.2513 168.092 94.4069 167.915C94.5626 167.737 94.7524 167.593 94.965 167.49C95.24 167.345 101.78 163.99 108.245 167.61C109.487 168.274 110.555 169.221 111.364 170.373C112.174 171.525 112.701 172.852 112.905 174.245C113.47 177.8 112.135 181.44 110.515 183.195C110.351 183.374 110.152 183.517 109.93 183.614C109.708 183.711 109.468 183.761 109.225 183.76Z" fill="#263238"/>
<path d="M112.33 174.335C112.138 173.029 111.643 171.786 110.884 170.706C110.125 169.625 109.124 168.738 107.96 168.115C106.062 167.052 103.92 166.501 101.745 166.515C99.4939 166.527 97.2735 167.039 95.245 168.015C95.0107 168.136 94.824 168.332 94.7152 168.572C94.6064 168.812 94.5818 169.082 94.6455 169.338C94.7091 169.593 94.8573 169.82 95.0659 169.981C95.2745 170.142 95.5314 170.228 95.795 170.225C95.9834 170.225 96.1689 170.179 96.335 170.09C98.0244 169.3 99.865 168.885 101.73 168.875C103.51 168.859 105.264 169.305 106.82 170.17C107.675 170.62 108.41 171.267 108.965 172.057C109.521 172.848 109.881 173.758 110.015 174.715C110.42 177.215 109.515 179.99 108.37 181.215C108.215 181.382 108.113 181.591 108.075 181.815C108.037 182.04 108.065 182.27 108.157 182.479C108.248 182.688 108.398 182.865 108.589 182.99C108.779 183.114 109.002 183.18 109.23 183.18C109.392 183.182 109.553 183.149 109.703 183.085C109.852 183.02 109.985 182.925 110.095 182.805C111.61 181.14 112.87 177.705 112.33 174.335Z" fill="#FE7622"/>
<path d="M97.76 191.23C97.0014 191.228 96.2435 191.183 95.49 191.095C89.49 190.41 85.99 187.595 84.07 185.335C82.8822 183.955 81.9805 182.353 81.4174 180.622C80.8543 178.891 80.641 177.065 80.79 175.25C81.14 171.645 83 168.455 85.76 166.715C86.8043 166.031 87.9917 165.597 89.2306 165.445C90.4694 165.294 91.7266 165.429 92.905 165.84C98.405 167.84 99.09 172.685 98.68 174.965L95.215 174.335L96.945 174.65L95.21 174.355C95.275 173.975 95.71 170.6 91.71 169.15C91.0359 168.918 90.3171 168.847 89.6106 168.941C88.9041 169.036 88.2293 169.294 87.64 169.695C85.795 170.86 84.545 173.065 84.295 175.595C83.795 180.715 87.685 186.66 95.895 187.595C103.76 188.5 106.49 183.44 106.6 183.225L109.74 184.81C109.595 185.1 106.425 191.23 97.76 191.23Z" fill="#263238"/>
<path d="M106.81 184C105.965 185.23 103.31 188.3 97.72 188.3C97.0866 188.298 96.4539 188.26 95.825 188.185C87.24 187.185 83.175 180.94 83.705 175.545C83.975 172.83 85.325 170.46 87.325 169.205C88.1972 168.635 89.2133 168.325 90.255 168.31C90.8176 168.311 91.3758 168.409 91.905 168.6C95.485 169.905 95.86 172.64 95.84 173.87L97.05 174.08L98.175 174.28C98.345 172.015 97.41 168.11 92.705 166.395C91.924 166.114 91.1001 165.97 90.27 165.97C88.7814 165.98 87.3265 166.414 86.075 167.22C83.465 168.86 81.71 171.885 81.37 175.315C81.2298 177.051 81.4361 178.798 81.9769 180.454C82.5177 182.109 83.3821 183.641 84.52 184.96C86.345 187.13 89.745 189.85 95.555 190.52C96.287 190.605 97.0231 190.648 97.76 190.65C104.76 190.65 107.985 186.535 108.92 185.065L106.81 184Z" fill="#FE7622"/>
<path d="M85.635 189.175C85.1682 189.175 84.7206 188.99 84.3905 188.66C84.0604 188.329 83.875 187.882 83.875 187.415C83.875 186.45 83.875 186.45 90.01 180.345L92.125 178.24C93.875 176.49 94.215 175.565 94.28 175.305C94.1662 174.895 94.2044 174.459 94.3875 174.075C94.5707 173.692 94.8865 173.387 95.2766 173.218C95.6667 173.05 96.1047 173.028 96.5097 173.157C96.9147 173.286 97.2594 173.557 97.48 173.92C98.04 174.835 98.415 176.92 94.615 180.73L92.5 182.84C90.5 184.84 87.74 187.57 87.19 188.25C87.0384 188.53 86.8138 188.764 86.54 188.927C86.2663 189.09 85.9535 189.176 85.635 189.175Z" fill="#263238"/>
<path d="M85.635 188.585C85.3242 188.585 85.0261 188.462 84.8059 188.243C84.5857 188.023 84.4613 187.726 84.46 187.415C84.46 186.72 84.46 186.695 90.425 180.76L92.54 178.655C94.07 177.125 94.605 176.155 94.79 175.655L95.025 175.56V175.515L95 175.475L95.04 175.555L94.805 175.65C94.805 175.58 94.85 175.515 94.865 175.46L94.905 175.31L94.86 175.16C94.7935 174.918 94.8061 174.66 94.896 174.426C94.986 174.191 95.1485 173.991 95.36 173.855C95.4912 173.774 95.6371 173.719 95.7895 173.695C95.9418 173.67 96.0975 173.676 96.2476 173.711C96.3977 173.747 96.5393 173.812 96.6641 173.903C96.7889 173.994 96.8946 174.108 96.975 174.24C97.35 174.855 97.84 176.68 94.195 180.325L92.14 182.37L92.075 182.435C89.94 184.555 87.295 187.19 86.725 187.885L86.69 187.93L86.66 187.98C86.5589 188.163 86.4105 188.316 86.2302 188.423C86.0499 188.529 85.8443 188.585 85.635 188.585Z" fill="#FE7622"/>
<path d="M85.635 188C85.4794 188 85.3301 187.939 85.2196 187.829C85.1091 187.719 85.0463 187.571 85.045 187.415C85.045 186.97 85.425 186.56 90.84 181.18L92.955 179.07C93.8854 178.22 94.6589 177.213 95.24 176.095L95.785 175.88L95.535 175.245L95.485 175.16H95.46L95.415 174.98C95.3812 174.859 95.3877 174.73 95.4337 174.612C95.4797 174.495 95.5627 174.396 95.67 174.33C95.7626 174.271 95.8702 174.24 95.98 174.24C96.0804 174.24 96.1791 174.266 96.2666 174.315C96.3542 174.364 96.4277 174.434 96.48 174.52C96.98 175.32 96.52 177.15 93.785 179.885L91.73 181.93L91.665 181.995C89.415 184.23 86.865 186.77 86.275 187.495L86.205 187.58L86.15 187.68C86.1016 187.775 86.028 187.856 85.9372 187.912C85.8464 187.968 85.7419 187.999 85.635 188Z" fill="#FE7622"/>
<path d="M112.035 186.755C111.598 186.755 111.176 186.595 110.85 186.305C110.495 186.05 109.03 185.13 107.61 184.235C104.11 182.035 98.815 178.71 96.355 176.82C92.45 173.82 91.145 171.82 91.01 171.625C90.7594 171.231 90.6755 170.754 90.7767 170.298C90.878 169.842 91.1562 169.446 91.55 169.195C91.9438 168.944 92.4211 168.86 92.8768 168.962C93.3325 169.063 93.7294 169.341 93.98 169.735C94.015 169.79 95.145 171.445 98.48 174.03C100.805 175.82 106.01 179.09 109.48 181.255C113.215 183.6 113.215 183.6 113.48 184.02C113.608 184.213 113.696 184.429 113.74 184.656C113.784 184.883 113.782 185.117 113.736 185.344C113.689 185.57 113.599 185.786 113.469 185.977C113.339 186.169 113.173 186.333 112.98 186.46C112.7 186.648 112.372 186.751 112.035 186.755Z" fill="#263238"/>
<path d="M110.895 185.815V185.76L110.58 185.97L110.895 185.815Z" fill="#FE7622"/>
<path d="M113 184.345C112.8 184.045 112.795 184.03 109.165 181.75C105.71 179.58 100.49 176.3 98.14 174.495C94.725 171.865 93.535 170.135 93.48 170.05C93.3129 169.785 93.0473 169.597 92.7416 169.527C92.4359 169.458 92.1152 169.513 91.85 169.68C91.5848 169.847 91.3968 170.113 91.3274 170.418C91.258 170.724 91.3129 171.045 91.48 171.31C91.61 171.52 92.865 173.41 96.69 176.355C99.125 178.23 104.4 181.545 107.91 183.745C109.2 184.555 110.41 185.33 110.97 185.69L110.865 185.755V185.81L111.025 185.725L111.19 185.84L111.215 185.865C111.433 186.058 111.714 186.165 112.005 186.165C112.217 186.165 112.426 186.107 112.608 185.998C112.79 185.889 112.939 185.732 113.039 185.544C113.138 185.357 113.185 185.145 113.174 184.933C113.163 184.721 113.094 184.516 112.975 184.34L113 184.345Z" fill="#FE7622"/>
<path d="M91.465 181.665C91.466 181.586 91.4435 181.509 91.4005 181.444C91.3575 181.378 91.2959 181.327 91.2235 181.296C91.1511 181.266 91.0713 181.257 90.9942 181.272C90.9171 181.287 90.8463 181.325 90.7907 181.381C90.7352 181.436 90.6975 181.507 90.6824 181.584C90.6673 181.661 90.6755 181.741 90.7061 181.813C90.7366 181.886 90.788 181.948 90.8537 181.991C90.9194 182.034 90.9965 182.056 91.075 182.055C91.1784 182.055 91.2776 182.014 91.3508 181.941C91.4239 181.868 91.465 181.768 91.465 181.665Z" fill="#263238"/>
<path d="M91.26 188C91.26 187.897 91.2189 187.797 91.1458 187.724C91.0726 187.651 90.9734 187.61 90.87 187.61C90.7666 187.61 90.6674 187.651 90.5942 187.724C90.5211 187.797 90.48 187.897 90.48 188C90.48 188.103 90.5211 188.203 90.5942 188.276C90.6674 188.349 90.7666 188.39 90.87 188.39C90.9734 188.39 91.0726 188.349 91.1458 188.276C91.2189 188.203 91.26 188.103 91.26 188Z" fill="#263238"/>
<path d="M84.62 182.74C84.62 182.663 84.5971 182.587 84.5543 182.523C84.5114 182.459 84.4505 182.409 84.3793 182.38C84.308 182.35 84.2296 182.342 84.1539 182.358C84.0783 182.373 84.0088 182.41 83.9542 182.464C83.8997 182.519 83.8625 182.588 83.8475 182.664C83.8324 182.74 83.8402 182.818 83.8697 182.889C83.8992 182.961 83.9492 183.021 84.0133 183.064C84.0775 183.107 84.1529 183.13 84.23 183.13C84.3334 183.13 84.4326 183.089 84.5058 183.016C84.5789 182.943 84.62 182.843 84.62 182.74Z" fill="#263238"/>
<path d="M83.645 173.6C83.645 173.509 83.6086 173.421 83.5439 173.356C83.4792 173.291 83.3915 173.255 83.3 173.255C83.2549 173.255 83.2103 173.264 83.1687 173.281C83.1271 173.299 83.0894 173.324 83.0578 173.356C83.0262 173.388 83.0012 173.427 82.9844 173.468C82.9676 173.51 82.9593 173.555 82.96 173.6C82.9593 173.645 82.9677 173.689 82.9845 173.731C83.0013 173.772 83.0264 173.81 83.0581 173.842C83.0898 173.874 83.1275 173.899 83.1691 173.915C83.2106 173.932 83.2552 173.941 83.3 173.94C83.3451 173.941 83.3898 173.932 83.4316 173.916C83.4735 173.899 83.5115 173.874 83.5437 173.842C83.5758 173.811 83.6012 173.773 83.6186 173.731C83.636 173.69 83.645 173.645 83.645 173.6Z" fill="#263238"/>
<path d="M88.385 168C88.385 167.932 88.3648 167.865 88.3269 167.808C88.2889 167.752 88.2351 167.707 88.172 167.681C88.109 167.655 88.0396 167.648 87.9727 167.662C87.9058 167.675 87.8443 167.708 87.796 167.756C87.7478 167.804 87.7149 167.866 87.7016 167.933C87.6883 168 87.6951 168.069 87.7213 168.132C87.7474 168.195 87.7916 168.249 87.8483 168.287C87.9051 168.325 87.9718 168.345 88.04 168.345C88.1315 168.345 88.2192 168.309 88.2839 168.244C88.3486 168.179 88.385 168.091 88.385 168Z" fill="#263238"/>
<path d="M93.615 168.415C93.8028 168.415 93.955 168.263 93.955 168.075C93.955 167.887 93.8028 167.735 93.615 167.735C93.4272 167.735 93.275 167.887 93.275 168.075C93.275 168.263 93.4272 168.415 93.615 168.415Z" fill="#263238"/>
<path d="M101.68 167.88C101.681 167.811 101.661 167.744 101.624 167.686C101.586 167.629 101.533 167.584 101.469 167.557C101.406 167.531 101.336 167.523 101.269 167.536C101.202 167.55 101.14 167.583 101.091 167.631C101.043 167.68 101.01 167.742 100.996 167.809C100.983 167.876 100.991 167.946 101.017 168.009C101.044 168.073 101.089 168.126 101.146 168.164C101.204 168.201 101.271 168.221 101.34 168.22C101.43 168.22 101.517 168.184 101.58 168.12C101.644 168.057 101.68 167.97 101.68 167.88Z" fill="#263238"/>
<path d="M82.565 178.535C82.7804 178.535 82.955 178.36 82.955 178.145C82.955 177.93 82.7804 177.755 82.565 177.755C82.3496 177.755 82.175 177.93 82.175 178.145C82.175 178.36 82.3496 178.535 82.565 178.535Z" fill="#263238"/>
<path d="M97.915 189.68C97.915 189.603 97.8921 189.527 97.8493 189.463C97.8064 189.399 97.7455 189.349 97.6742 189.32C97.603 189.29 97.5246 189.282 97.4489 189.298C97.3733 189.313 97.3038 189.35 97.2492 189.404C97.1947 189.459 97.1575 189.528 97.1425 189.604C97.1274 189.68 97.1352 189.758 97.1647 189.829C97.1942 189.901 97.2442 189.961 97.3083 190.004C97.3725 190.047 97.4479 190.07 97.525 190.07C97.6284 190.07 97.7276 190.029 97.8008 189.956C97.8739 189.883 97.915 189.783 97.915 189.68Z" fill="#263238"/>
<path d="M104.075 187.625C104.29 187.625 104.465 187.45 104.465 187.235C104.465 187.02 104.29 186.845 104.075 186.845C103.86 186.845 103.685 187.02 103.685 187.235C103.685 187.45 103.86 187.625 104.075 187.625Z" fill="#263238"/>
<path d="M102.22 189C102.22 188.922 102.197 188.846 102.153 188.781C102.11 188.716 102.048 188.665 101.976 188.635C101.904 188.605 101.825 188.597 101.748 188.613C101.671 188.628 101.601 188.665 101.546 188.721C101.49 188.776 101.453 188.846 101.438 188.923C101.422 189 101.43 189.079 101.46 189.151C101.49 189.223 101.541 189.285 101.606 189.328C101.671 189.372 101.747 189.395 101.825 189.395C101.877 189.396 101.929 189.386 101.977 189.366C102.025 189.347 102.069 189.318 102.106 189.281C102.143 189.244 102.172 189.2 102.191 189.152C102.211 189.104 102.221 189.052 102.22 189Z" fill="#263238"/>
<path d="M109.62 183.76C109.619 183.656 109.576 183.557 109.503 183.484C109.429 183.411 109.329 183.37 109.225 183.37C109.122 183.37 109.022 183.411 108.949 183.484C108.876 183.557 108.835 183.657 108.835 183.76C108.835 183.863 108.876 183.963 108.949 184.036C109.022 184.109 109.122 184.15 109.225 184.15C109.329 184.15 109.429 184.109 109.503 184.036C109.576 183.963 109.619 183.864 109.62 183.76Z" fill="#263238"/>
<path d="M111.41 178.44C111.411 178.362 111.389 178.285 111.346 178.219C111.303 178.154 111.242 178.102 111.17 178.072C111.098 178.041 111.018 178.032 110.941 178.047C110.864 178.062 110.793 178.099 110.738 178.154C110.682 178.209 110.644 178.279 110.628 178.356C110.612 178.433 110.62 178.513 110.65 178.585C110.679 178.657 110.73 178.719 110.795 178.763C110.86 178.807 110.937 178.83 111.015 178.83C111.119 178.83 111.219 178.789 111.293 178.716C111.366 178.643 111.409 178.544 111.41 178.44Z" fill="#263238"/>
<path d="M99.48 168.075C99.6954 168.075 99.87 167.9 99.87 167.685C99.87 167.47 99.6954 167.295 99.48 167.295C99.2646 167.295 99.09 167.47 99.09 167.685C99.09 167.9 99.2646 168.075 99.48 168.075Z" fill="#263238"/>
<path d="M108.085 170.125C108.3 170.125 108.475 169.95 108.475 169.735C108.475 169.52 108.3 169.345 108.085 169.345C107.87 169.345 107.695 169.52 107.695 169.735C107.695 169.95 107.87 170.125 108.085 170.125Z" fill="#263238"/>
<path d="M102.415 179.415C102.63 179.415 102.805 179.24 102.805 179.025C102.805 178.81 102.63 178.635 102.415 178.635C102.2 178.635 102.025 178.81 102.025 179.025C102.025 179.24 102.2 179.415 102.415 179.415Z" fill="#263238"/>
<path d="M97.525 175C97.525 174.897 97.4839 174.797 97.4108 174.724C97.3376 174.651 97.2384 174.61 97.135 174.61C97.0316 174.61 96.9324 174.651 96.8592 174.724C96.7861 174.797 96.745 174.897 96.745 175C96.745 175.103 96.7861 175.203 96.8592 175.276C96.9324 175.349 97.0316 175.39 97.135 175.39C97.2384 175.39 97.3376 175.349 97.4108 175.276C97.4839 175.203 97.525 175.103 97.525 175Z" fill="#263238"/>
<path d="M106.03 180.685C106.029 180.608 106.005 180.533 105.962 180.47C105.918 180.406 105.857 180.357 105.786 180.328C105.714 180.3 105.636 180.293 105.561 180.308C105.486 180.324 105.417 180.361 105.363 180.416C105.308 180.471 105.272 180.54 105.257 180.616C105.243 180.691 105.251 180.769 105.28 180.84C105.31 180.911 105.36 180.972 105.424 181.015C105.488 181.057 105.563 181.08 105.64 181.08C105.692 181.08 105.743 181.07 105.79 181.05C105.838 181.03 105.881 181.001 105.918 180.964C105.954 180.927 105.982 180.884 106.002 180.836C106.021 180.788 106.031 180.737 106.03 180.685Z" fill="#263238"/>
<path d="M88.725 184.305C88.7257 184.279 88.7211 184.254 88.7116 184.23C88.702 184.206 88.6877 184.184 88.6694 184.166C88.6512 184.147 88.6294 184.133 88.6054 184.123C88.5815 184.114 88.5558 184.109 88.53 184.11C88.4783 184.11 88.4287 184.131 88.3921 184.167C88.3555 184.204 88.335 184.253 88.335 184.305C88.3363 184.356 88.3572 184.405 88.3935 184.441C88.4298 184.478 88.4787 184.499 88.53 184.5C88.5817 184.5 88.6313 184.479 88.6679 184.443C88.7045 184.406 88.725 184.357 88.725 184.305Z" fill="#263238"/>
<path d="M83.645 180.5C83.6375 180.453 83.6135 180.41 83.5773 180.379C83.5411 180.348 83.4951 180.332 83.4475 180.332C83.3999 180.332 83.3539 180.348 83.3177 180.379C83.2815 180.41 83.2575 180.453 83.25 180.5C83.2575 180.547 83.2815 180.59 83.3177 180.621C83.3539 180.652 83.3999 180.668 83.4475 180.668C83.4951 180.668 83.5411 180.652 83.5773 180.621C83.6135 180.59 83.6375 180.547 83.645 180.5Z" fill="#263238"/>
<path d="M93.71 180C93.71 179.948 93.6895 179.899 93.6529 179.862C93.6163 179.826 93.5667 179.805 93.515 179.805C93.468 179.812 93.4252 179.836 93.3944 179.873C93.3635 179.909 93.3465 179.955 93.3465 180.003C93.3465 180.05 93.3635 180.096 93.3944 180.132C93.4252 180.168 93.468 180.192 93.515 180.2C93.541 180.2 93.5668 180.195 93.5908 180.185C93.6148 180.175 93.6365 180.16 93.6547 180.141C93.6729 180.122 93.6871 180.1 93.6966 180.076C93.7061 180.052 93.7107 180.026 93.71 180Z" fill="#263238"/>
<path d="M95.08 177.165C95.08 177.113 95.0595 177.064 95.0229 177.027C94.9863 176.991 94.9367 176.97 94.885 176.97C94.838 176.978 94.7952 177.002 94.7644 177.038C94.7335 177.074 94.7165 177.12 94.7165 177.168C94.7165 177.215 94.7335 177.261 94.7644 177.297C94.7952 177.334 94.838 177.358 94.885 177.365C94.911 177.365 94.9368 177.36 94.9608 177.35C94.9848 177.34 95.0065 177.325 95.0247 177.306C95.0428 177.288 95.0571 177.265 95.0666 177.241C95.0761 177.217 95.0807 177.191 95.08 177.165Z" fill="#263238"/>
<path d="M95.465 169.315C95.4575 169.268 95.4335 169.225 95.3973 169.194C95.3611 169.163 95.3151 169.147 95.2675 169.147C95.2199 169.147 95.1739 169.163 95.1377 169.194C95.1015 169.225 95.0775 169.268 95.07 169.315C95.0775 169.362 95.1015 169.405 95.1377 169.436C95.1739 169.467 95.2199 169.483 95.2675 169.483C95.3151 169.483 95.3611 169.467 95.3973 169.436C95.4335 169.405 95.4575 169.362 95.465 169.315Z" fill="#263238"/>
<path d="M85.4 168.66C85.4 168.608 85.3795 168.559 85.3429 168.522C85.3063 168.486 85.2567 168.465 85.205 168.465C85.1537 168.466 85.1048 168.487 85.0685 168.524C85.0322 168.56 85.0113 168.609 85.01 168.66C85.01 168.712 85.0305 168.761 85.0671 168.798C85.1037 168.834 85.1533 168.855 85.205 168.855C85.2308 168.856 85.2565 168.851 85.2804 168.842C85.3044 168.832 85.3262 168.818 85.3444 168.799C85.3627 168.781 85.377 168.759 85.3866 168.735C85.3961 168.711 85.4007 168.686 85.4 168.66Z" fill="#263238"/>
<path d="M91.755 167.195C91.7557 167.169 91.7511 167.144 91.7416 167.12C91.732 167.096 91.7177 167.074 91.6994 167.056C91.6812 167.037 91.6594 167.023 91.6354 167.013C91.6115 167.004 91.5858 166.999 91.56 167C91.5344 167 91.509 167.005 91.4854 167.015C91.4617 167.025 91.4402 167.039 91.4221 167.057C91.404 167.075 91.3896 167.097 91.3798 167.12C91.37 167.144 91.365 167.169 91.365 167.195C91.365 167.221 91.37 167.246 91.3798 167.27C91.3896 167.293 91.404 167.315 91.4221 167.333C91.4402 167.351 91.4617 167.365 91.4854 167.375C91.509 167.385 91.5344 167.39 91.56 167.39C91.5858 167.391 91.6115 167.386 91.6354 167.377C91.6594 167.367 91.6812 167.353 91.6994 167.334C91.7177 167.316 91.732 167.294 91.7416 167.27C91.7511 167.246 91.7557 167.221 91.755 167.195Z" fill="#263238"/>
<path d="M84.5 170.935C84.5 170.883 84.4795 170.834 84.4429 170.797C84.4063 170.761 84.3567 170.74 84.305 170.74C84.2792 170.739 84.2535 170.744 84.2296 170.753C84.2056 170.763 84.1838 170.777 84.1656 170.796C84.1473 170.814 84.133 170.836 84.1234 170.86C84.1139 170.884 84.1093 170.909 84.11 170.935C84.11 170.987 84.1305 171.036 84.1671 171.073C84.2037 171.109 84.2533 171.13 84.305 171.13C84.3563 171.129 84.4052 171.108 84.4415 171.071C84.4778 171.035 84.4987 170.986 84.5 170.935Z" fill="#263238"/>
<path d="M104.37 179.905C104.37 179.853 104.349 179.804 104.313 179.767C104.276 179.731 104.227 179.71 104.175 179.71C104.123 179.71 104.074 179.731 104.037 179.767C104.001 179.804 103.98 179.853 103.98 179.905C103.98 179.957 104.001 180.006 104.037 180.043C104.074 180.079 104.123 180.1 104.175 180.1C104.227 180.1 104.276 180.079 104.313 180.043C104.349 180.006 104.37 179.957 104.37 179.905Z" fill="#263238"/>
<path d="M94.79 172.5C94.791 172.46 94.7801 172.421 94.7587 172.388C94.7374 172.354 94.7065 172.328 94.6701 172.312C94.6336 172.296 94.5933 172.291 94.5541 172.298C94.515 172.305 94.4789 172.324 94.4504 172.352C94.422 172.38 94.4024 172.415 94.3943 172.454C94.3862 172.493 94.3898 172.534 94.4048 172.57C94.4198 172.607 94.4454 172.639 94.4784 172.661C94.5114 172.683 94.5502 172.695 94.59 172.695C94.616 172.696 94.6419 172.691 94.6662 172.682C94.6904 172.672 94.7125 172.658 94.7311 172.64C94.7498 172.622 94.7646 172.6 94.7747 172.576C94.7848 172.552 94.79 172.526 94.79 172.5Z" fill="#263238"/>
<path d="M99.185 177.165C99.185 177.113 99.1644 177.064 99.1279 177.027C99.0913 176.991 99.0417 176.97 98.99 176.97C98.943 176.978 98.9002 177.002 98.8694 177.038C98.8385 177.074 98.8215 177.12 98.8215 177.168C98.8215 177.215 98.8385 177.261 98.8694 177.297C98.9002 177.334 98.943 177.358 98.99 177.365C99.016 177.365 99.0418 177.36 99.0658 177.35C99.0898 177.34 99.1115 177.325 99.1297 177.306C99.1479 177.288 99.1621 177.265 99.1716 177.241C99.1811 177.217 99.1857 177.191 99.185 177.165Z" fill="#263238"/>
<path d="M110.235 170.715C110.235 170.663 110.214 170.614 110.178 170.577C110.141 170.541 110.092 170.52 110.04 170.52C110.014 170.52 109.989 170.525 109.965 170.535C109.942 170.545 109.92 170.559 109.902 170.577C109.884 170.595 109.87 170.617 109.86 170.64C109.85 170.664 109.845 170.689 109.845 170.715C109.845 170.741 109.85 170.766 109.86 170.79C109.87 170.813 109.884 170.835 109.902 170.853C109.92 170.871 109.942 170.885 109.965 170.895C109.989 170.905 110.014 170.91 110.04 170.91C110.092 170.91 110.141 170.889 110.178 170.853C110.214 170.816 110.235 170.767 110.235 170.715Z" fill="#263238"/>
<path d="M110.33 180.88C110.33 180.828 110.309 180.779 110.273 180.742C110.236 180.706 110.187 180.685 110.135 180.685C110.088 180.692 110.045 180.717 110.014 180.753C109.983 180.789 109.967 180.835 109.967 180.883C109.967 180.93 109.983 180.976 110.014 181.012C110.045 181.048 110.088 181.073 110.135 181.08C110.161 181.08 110.187 181.075 110.211 181.065C110.235 181.055 110.257 181.04 110.275 181.021C110.293 181.002 110.307 180.98 110.317 180.956C110.326 180.932 110.331 180.906 110.33 180.88Z" fill="#263238"/>
<path d="M105.445 168.955C105.445 168.903 105.424 168.854 105.388 168.817C105.351 168.781 105.302 168.76 105.25 168.76C105.224 168.76 105.199 168.765 105.175 168.775C105.152 168.785 105.13 168.799 105.112 168.817C105.094 168.835 105.08 168.857 105.07 168.88C105.06 168.904 105.055 168.929 105.055 168.955C105.055 168.981 105.06 169.006 105.07 169.03C105.08 169.053 105.094 169.075 105.112 169.093C105.13 169.111 105.152 169.125 105.175 169.135C105.199 169.145 105.224 169.15 105.25 169.15C105.302 169.15 105.351 169.129 105.388 169.093C105.424 169.056 105.445 169.007 105.445 168.955Z" fill="#263238"/>
<path d="M110.53 172.5C110.531 172.46 110.52 172.421 110.499 172.388C110.477 172.354 110.447 172.328 110.41 172.312C110.374 172.296 110.333 172.291 110.294 172.298C110.255 172.305 110.219 172.324 110.19 172.352C110.162 172.38 110.142 172.415 110.134 172.454C110.126 172.493 110.13 172.534 110.145 172.57C110.16 172.607 110.185 172.639 110.218 172.661C110.251 172.683 110.29 172.695 110.33 172.695C110.356 172.696 110.382 172.691 110.406 172.682C110.43 172.672 110.452 172.658 110.471 172.64C110.49 172.622 110.505 172.6 110.515 172.576C110.525 172.552 110.53 172.526 110.53 172.5Z" fill="#263238"/>
<path d="M108.77 182.545C108.762 182.498 108.738 182.455 108.702 182.424C108.666 182.393 108.62 182.377 108.573 182.377C108.525 182.377 108.479 182.393 108.443 182.424C108.407 182.455 108.382 182.498 108.375 182.545C108.382 182.592 108.407 182.635 108.443 182.666C108.479 182.697 108.525 182.713 108.573 182.713C108.62 182.713 108.666 182.697 108.702 182.666C108.738 182.635 108.762 182.592 108.77 182.545Z" fill="#263238"/>
<path d="M106.42 185.965C106.42 185.913 106.399 185.864 106.363 185.827C106.326 185.791 106.277 185.77 106.225 185.77C106.174 185.771 106.125 185.792 106.089 185.829C106.052 185.865 106.031 185.914 106.03 185.965C106.03 186.017 106.051 186.066 106.087 186.103C106.124 186.139 106.173 186.16 106.225 186.16C106.251 186.161 106.276 186.156 106.3 186.147C106.324 186.137 106.346 186.123 106.364 186.104C106.383 186.086 106.397 186.064 106.407 186.04C106.416 186.016 106.421 185.991 106.42 185.965Z" fill="#263238"/>
<path d="M111.7 174.92C111.701 174.894 111.696 174.869 111.687 174.845C111.677 174.821 111.663 174.799 111.644 174.781C111.626 174.762 111.604 174.748 111.58 174.738C111.556 174.729 111.531 174.724 111.505 174.725C111.453 174.725 111.404 174.746 111.367 174.782C111.331 174.819 111.31 174.868 111.31 174.92C111.311 174.971 111.332 175.02 111.369 175.056C111.405 175.093 111.454 175.114 111.505 175.115C111.557 175.115 111.606 175.094 111.643 175.058C111.679 175.021 111.7 174.972 111.7 174.92Z" fill="#263238"/>
<path d="M111.895 176.58C111.895 176.528 111.874 176.479 111.838 176.442C111.801 176.406 111.752 176.385 111.7 176.385C111.649 176.386 111.6 176.407 111.564 176.444C111.527 176.48 111.506 176.529 111.505 176.58C111.505 176.632 111.526 176.681 111.562 176.718C111.599 176.754 111.648 176.775 111.7 176.775C111.726 176.776 111.751 176.771 111.775 176.762C111.799 176.752 111.821 176.738 111.839 176.719C111.858 176.701 111.872 176.679 111.882 176.655C111.891 176.631 111.896 176.606 111.895 176.58Z" fill="#263238"/>
<path d="M94.5 188.9C94.5 188.848 94.4794 188.799 94.4429 188.762C94.4063 188.726 94.3567 188.705 94.305 188.705C94.2792 188.704 94.2535 188.709 94.2296 188.718C94.2056 188.728 94.1838 188.742 94.1656 188.761C94.1473 188.779 94.133 188.801 94.1234 188.825C94.1139 188.849 94.1093 188.874 94.11 188.9C94.11 188.952 94.1305 189.001 94.1671 189.038C94.2037 189.074 94.2533 189.095 94.305 189.095C94.3563 189.094 94.4052 189.073 94.4415 189.036C94.4778 189 94.4987 188.951 94.5 188.9Z" fill="#263238"/>
<path d="M86.28 186.355C86.28 186.303 86.2595 186.254 86.2229 186.217C86.1863 186.181 86.1367 186.16 86.085 186.16C86.038 186.168 85.9952 186.192 85.9644 186.228C85.9335 186.264 85.9165 186.31 85.9165 186.357C85.9165 186.405 85.9335 186.451 85.9644 186.487C85.9952 186.524 86.038 186.547 86.085 186.555C86.111 186.555 86.1368 186.55 86.1608 186.54C86.1848 186.53 86.2065 186.515 86.2247 186.496C86.2429 186.477 86.2571 186.455 86.2666 186.431C86.2761 186.407 86.2807 186.381 86.28 186.355Z" fill="#263238"/>
<path d="M41.415 211.32H214.535" stroke="#263238" stroke-width="2" stroke-linecap="round" stroke-linejoin="round"/>
</svg>
