<svg width="229" height="171" viewBox="0 0 229 171" fill="none" xmlns="http://www.w3.org/2000/svg">
<path d="M229 149.949H0V150.064H229V149.949Z" fill="#EBEBEB"/>
<path d="M206.054 157.318H190.885V157.433H206.054V157.318Z" fill="#EBEBEB"/>
<path d="M151.699 158.564H147.719V158.679H151.699V158.564Z" fill="#EBEBEB"/>
<path d="M190.427 153.068H181.638V153.183H190.427V153.068Z" fill="#EBEBEB"/>
<path d="M43.8077 153.838H24.0267V153.952H43.8077V153.838Z" fill="#EBEBEB"/>
<path d="M50.7876 153.838H47.8885V153.952H50.7876V153.838Z" fill="#EBEBEB"/>
<path d="M103.119 155.77H60.2133V155.885H103.119V155.77Z" fill="#EBEBEB"/>
<path d="M108.546 129.522H20.1108C19.418 129.521 18.754 129.245 18.2645 128.755C17.7751 128.265 17.5002 127.6 17.5002 126.907V2.59229C17.5062 1.90347 17.7838 1.24484 18.2726 0.75947C18.7614 0.2741 19.4219 0.00118571 20.1108 5.72205e-06H108.546C109.24 5.72205e-06 109.905 0.275533 110.395 0.765974C110.886 1.25642 111.161 1.9216 111.161 2.61519V126.907C111.161 127.601 110.886 128.266 110.395 128.756C109.905 129.247 109.24 129.522 108.546 129.522ZM20.1108 0.0916061C19.4484 0.0928193 18.8135 0.356818 18.3455 0.825655C17.8775 1.29449 17.6147 1.92986 17.6147 2.59229V126.907C17.6147 127.57 17.8775 128.205 18.3455 128.674C18.8135 129.143 19.4484 129.407 20.1108 129.408H108.546C109.209 129.407 109.844 129.143 110.313 128.674C110.782 128.205 111.045 127.57 111.047 126.907V2.59229C111.045 1.92944 110.782 1.29408 110.313 0.825375C109.844 0.356669 109.209 0.0928168 108.546 0.0916061H20.1108Z" fill="#EBEBEB"/>
<path d="M207.616 129.522H119.176C118.483 129.521 117.818 129.245 117.328 128.755C116.838 128.265 116.562 127.6 116.561 126.907V2.59229C116.568 1.90305 116.847 1.24443 117.336 0.759183C117.826 0.273939 118.487 0.00117284 119.176 5.72205e-06H207.616C208.304 0.00238938 208.963 0.275836 209.451 0.761077C209.939 1.24632 210.216 1.90426 210.222 2.59229V126.907C210.222 127.599 209.948 128.263 209.459 128.753C208.971 129.243 208.308 129.52 207.616 129.522ZM119.176 0.0916061C118.513 0.0928168 117.878 0.356669 117.409 0.825375C116.941 1.29408 116.677 1.92944 116.676 2.59229V126.907C116.677 127.57 116.941 128.205 117.409 128.674C117.878 129.143 118.513 129.407 119.176 129.408H207.616C208.279 129.407 208.914 129.143 209.383 128.674C209.852 128.205 210.115 127.57 210.117 126.907V2.59229C210.115 1.92944 209.852 1.29408 209.383 0.825375C208.914 0.356669 208.279 0.0928168 207.616 0.0916061H119.176Z" fill="#EBEBEB"/>
<path d="M92.9832 115.416H45.1588V144.907H92.9832V115.416Z" fill="#E6E6E6"/>
<path d="M68.7046 116.795H48.9556V131.941H68.7046V116.795Z" fill="#F0F0F0"/>
<path d="M89.1909 116.795H69.442V131.941H89.1909V116.795Z" fill="#F0F0F0"/>
<path d="M45.1588 118.233C44.63 118.231 44.1233 118.021 43.7498 117.646C43.3763 117.272 43.1665 116.765 43.1665 116.236V114.239H47.174V116.236C47.174 116.5 47.1218 116.761 47.0203 117.004C46.9188 117.248 46.77 117.469 46.5827 117.654C46.3953 117.84 46.173 117.987 45.9286 118.086C45.6842 118.185 45.4226 118.235 45.1588 118.233Z" fill="#E0E0E0"/>
<path d="M47.1465 114.239H51.1357V116.236C51.1357 116.765 50.9253 117.273 50.5508 117.648C50.1763 118.022 49.6684 118.233 49.1388 118.233C48.6092 118.233 48.1013 118.022 47.7268 117.648C47.3523 117.273 47.1419 116.765 47.1419 116.236V114.239H47.1465Z" fill="#FAFAFA"/>
<path d="M53.128 118.233C52.5984 118.233 52.0905 118.022 51.716 117.648C51.3415 117.273 51.1311 116.765 51.1311 116.236V114.239H55.1203V116.236C55.1203 116.765 54.9106 117.272 54.5371 117.646C54.1636 118.021 53.6568 118.231 53.128 118.233Z" fill="#E0E0E0"/>
<path d="M57.1126 118.233C56.583 118.233 56.0751 118.022 55.7006 117.648C55.3261 117.273 55.1157 116.765 55.1157 116.236V114.239H59.1049V116.236C59.1049 116.765 58.8951 117.272 58.5217 117.646C58.1482 118.021 57.6414 118.231 57.1126 118.233Z" fill="#FAFAFA"/>
<path d="M61.1018 118.233C60.8395 118.233 60.5799 118.181 60.3376 118.081C60.0953 117.98 59.8752 117.833 59.6898 117.648C59.5043 117.462 59.3572 117.242 59.2569 117C59.1565 116.758 59.1049 116.498 59.1049 116.236V114.239H63.0986V116.236C63.0986 116.765 62.8883 117.273 62.5138 117.648C62.1393 118.022 61.6314 118.233 61.1018 118.233Z" fill="#E0E0E0"/>
<path d="M65.0818 118.233C64.553 118.231 64.0463 118.021 63.6728 117.646C63.2993 117.272 63.0895 116.765 63.0895 116.236V114.239H67.0787V116.236C67.0787 116.498 67.027 116.758 66.9267 117C66.8263 117.242 66.6792 117.462 66.4938 117.648C66.3084 117.833 66.0883 117.98 65.846 118.081C65.6037 118.181 65.344 118.233 65.0818 118.233Z" fill="#FAFAFA"/>
<path d="M69.071 118.233C68.5422 118.231 68.0354 118.021 67.6619 117.646C67.2884 117.272 67.0787 116.765 67.0787 116.236V114.239H71.0679V116.236C71.0679 116.765 70.8575 117.273 70.483 117.648C70.1085 118.022 69.6006 118.233 69.071 118.233Z" fill="#E0E0E0"/>
<path d="M73.0556 118.233C72.526 118.233 72.018 118.022 71.6436 117.648C71.2691 117.273 71.0587 116.765 71.0587 116.236V114.239H75.0479V116.236C75.0479 116.765 74.8381 117.272 74.4646 117.646C74.0911 118.021 73.5844 118.231 73.0556 118.233Z" fill="#FAFAFA"/>
<path d="M77.0448 118.233C76.7825 118.233 76.5229 118.181 76.2806 118.081C76.0383 117.98 75.8182 117.833 75.6328 117.648C75.4473 117.462 75.3002 117.242 75.1999 117C75.0995 116.758 75.0479 116.498 75.0479 116.236V114.239H79.0371V116.236C79.0371 116.765 78.8273 117.272 78.4538 117.646C78.0803 118.021 77.5736 118.231 77.0448 118.233Z" fill="#E0E0E0"/>
<path d="M81.0248 118.233C80.7625 118.233 80.5029 118.181 80.2606 118.081C80.0183 117.98 79.7982 117.833 79.6128 117.648C79.4273 117.462 79.2802 117.242 79.1799 117C79.0795 116.758 79.0279 116.498 79.0279 116.236V114.239H83.0217V116.236C83.0217 116.765 82.8113 117.273 82.4368 117.648C82.0623 118.022 81.5544 118.233 81.0248 118.233Z" fill="#FAFAFA"/>
<path d="M85.014 118.233C84.4852 118.231 83.9784 118.021 83.6049 117.646C83.2314 117.272 83.0217 116.765 83.0217 116.236V114.239H87.02V116.236C87.02 116.499 86.9681 116.759 86.8671 117.002C86.7662 117.245 86.6183 117.466 86.4319 117.651C86.2455 117.837 86.0243 117.984 85.781 118.083C85.5376 118.183 85.277 118.234 85.014 118.233Z" fill="#E0E0E0"/>
<path d="M92.974 118.233C92.4444 118.233 91.9365 118.022 91.562 117.648C91.1875 117.273 90.9771 116.765 90.9771 116.236V114.239H94.9663V116.236C94.9663 116.765 94.7565 117.272 94.383 117.646C94.0095 118.021 93.5028 118.231 92.974 118.233Z" fill="#E0E0E0"/>
<path d="M88.994 118.233C88.4652 118.231 87.9584 118.021 87.5849 117.646C87.2114 117.272 87.0017 116.765 87.0017 116.236V114.239H90.9909V116.236C90.9909 116.765 90.7805 117.273 90.406 117.648C90.0315 118.022 89.5236 118.233 88.994 118.233Z" fill="#FAFAFA"/>
<path d="M91.3893 130.608H46.7572V133.269H91.3893V130.608Z" fill="#E0E0E0"/>
<path d="M47.1557 103.513L43.1665 114.239H47.1557L50.5311 103.513H47.1557Z" fill="#E0E0E0"/>
<path d="M50.522 103.513L47.1465 114.239H51.1357L53.8974 103.513H50.522Z" fill="#FAFAFA"/>
<path d="M53.8974 103.513L51.1357 114.239H55.1249L57.2729 103.513H53.8974Z" fill="#E0E0E0"/>
<path d="M57.2637 103.513L55.1157 114.239H59.1095L60.6438 103.513H57.2637Z" fill="#FAFAFA"/>
<path d="M60.6438 103.513L59.1095 114.239H63.0986L64.0192 103.513H60.6438Z" fill="#E0E0E0"/>
<path d="M64.0101 103.513L63.0895 114.239H67.0787L67.3856 103.513H64.0101Z" fill="#FAFAFA"/>
<path d="M67.3855 103.513L67.0787 114.239H71.0679L70.761 103.513H67.3855Z" fill="#E0E0E0"/>
<path d="M70.7518 103.513L71.0587 114.239H75.0479L74.1273 103.513H70.7518Z" fill="#FAFAFA"/>
<path d="M74.1273 103.513L75.0479 114.239H79.0371L77.5028 103.513H74.1273Z" fill="#E0E0E0"/>
<path d="M77.4982 103.513L79.0325 114.239H83.0216L80.8736 103.513H77.4982Z" fill="#FAFAFA"/>
<path d="M80.8737 103.513L83.0217 114.239H87.0109L84.2491 103.513H80.8737Z" fill="#E0E0E0"/>
<path d="M87.6154 103.513L90.9909 114.239H94.9801L90.9909 103.513H87.6154Z" fill="#E0E0E0"/>
<path d="M84.2399 103.513L87.0017 114.239H90.9909L87.6154 103.513H84.2399Z" fill="#FAFAFA"/>
<path d="M79.0325 99.3814H59.1095V110.035H79.0325V99.3814Z" fill="#EBEBEB"/>
<path d="M60.7491 100.824V101.992H62.604V102.592H60.7491V104.067H60.0346V100.22H62.8422V100.82L60.7491 100.824Z" fill="#FAFAFA"/>
<path d="M66.0528 104.071L65.265 102.945H64.2482V104.067H63.5338V100.22H65.1184C66.126 100.22 66.7535 100.737 66.7535 101.594C66.7643 101.856 66.6911 102.116 66.5445 102.334C66.3979 102.552 66.1855 102.718 65.9383 102.807L66.8222 104.071H66.0528ZM65.0864 100.829H64.2482V102.363H65.0864C65.7093 102.363 66.0344 102.074 66.0344 101.594C66.0344 101.113 65.7093 100.829 65.0864 100.829Z" fill="#FAFAFA"/>
<path d="M70.4358 103.471V104.071H67.555V100.224H70.358V100.824H68.2695V101.823H70.1244V102.409H68.2695V103.471H70.4358Z" fill="#FAFAFA"/>
<path d="M70.9121 103.664L71.1595 103.11C71.5262 103.383 71.971 103.53 72.4281 103.531C73.0281 103.531 73.28 103.316 73.28 103.032C73.28 102.203 70.99 102.748 70.99 101.319C70.99 100.696 71.4846 100.169 72.538 100.169C72.9879 100.16 73.431 100.28 73.8159 100.513L73.5914 101.067C73.272 100.874 72.9067 100.769 72.5335 100.765C71.9381 100.765 71.6999 100.994 71.6999 101.287C71.6999 102.102 73.9899 101.571 73.9899 102.981C73.9899 103.6 73.4907 104.126 72.4373 104.126C71.8917 104.145 71.3554 103.982 70.9121 103.664Z" fill="#FAFAFA"/>
<path d="M78.1073 100.224V104.071H77.402V102.423H75.4143V104.071H74.6998V100.224H75.4143V101.813H77.402V100.224H78.1073Z" fill="#FAFAFA"/>
<path d="M61.6789 105.523V106.714H63.5338V107.319H61.6789V108.793H60.9644V104.946H63.7719V105.546L61.6789 105.523Z" fill="#FAFAFA"/>
<path d="M64.1475 106.847C64.1292 106.434 64.2349 106.025 64.451 105.673C64.667 105.321 64.9836 105.041 65.3599 104.87C65.7362 104.699 66.155 104.645 66.5624 104.714C66.9698 104.784 67.3472 104.973 67.646 105.259C67.9447 105.544 68.1512 105.913 68.2387 106.316C68.3263 106.72 68.291 107.141 68.1374 107.525C67.9838 107.908 67.7188 108.237 67.3767 108.469C67.0346 108.701 66.6309 108.825 66.2176 108.825C65.9499 108.839 65.6822 108.798 65.4308 108.705C65.1795 108.611 64.9499 108.468 64.7561 108.282C64.5623 108.097 64.4084 107.874 64.3037 107.627C64.199 107.381 64.1459 107.115 64.1475 106.847ZM67.5687 106.847C67.5733 106.573 67.496 106.304 67.3467 106.075C67.1975 105.846 66.9832 105.666 66.7312 105.559C66.4792 105.452 66.2011 105.423 65.9324 105.475C65.6638 105.528 65.4169 105.659 65.2234 105.853C65.0298 106.046 64.8985 106.293 64.8462 106.562C64.7939 106.83 64.8231 107.108 64.9299 107.36C65.0367 107.612 65.2164 107.827 65.4458 107.976C65.6752 108.125 65.944 108.202 66.2176 108.198C66.3966 108.204 66.5749 108.173 66.7414 108.107C66.9079 108.041 67.0591 107.942 67.1858 107.815C67.3124 107.688 67.4117 107.537 67.4776 107.371C67.5434 107.204 67.5745 107.026 67.5687 106.847Z" fill="#FAFAFA"/>
<path d="M68.7733 106.847C68.755 106.434 68.8607 106.025 69.0768 105.673C69.2929 105.321 69.6094 105.041 69.9857 104.87C70.362 104.699 70.7808 104.645 71.1882 104.714C71.5956 104.784 71.973 104.973 72.2718 105.259C72.5705 105.544 72.777 105.913 72.8646 106.316C72.9521 106.72 72.9169 107.141 72.7632 107.525C72.6096 107.908 72.3447 108.237 72.0025 108.469C71.6604 108.701 71.2567 108.825 70.8435 108.825C70.5757 108.839 70.308 108.798 70.0567 108.705C69.8054 108.611 69.5758 108.468 69.3819 108.282C69.1881 108.097 69.0342 107.874 68.9295 107.627C68.8249 107.381 68.7717 107.115 68.7733 106.847ZM72.1946 106.847C72.1946 106.58 72.1153 106.318 71.9669 106.096C71.8184 105.874 71.6074 105.701 71.3605 105.599C71.1136 105.496 70.842 105.47 70.5799 105.522C70.3178 105.574 70.077 105.703 69.8881 105.891C69.6991 106.08 69.5705 106.321 69.5183 106.583C69.4662 106.845 69.4929 107.117 69.5952 107.364C69.6975 107.611 69.8706 107.822 70.0928 107.97C70.315 108.119 70.5762 108.198 70.8435 108.198C71.0224 108.204 71.2007 108.173 71.3672 108.107C71.5337 108.041 71.685 107.942 71.8116 107.815C71.9382 107.688 72.0375 107.537 72.1034 107.371C72.1693 107.204 72.2003 107.026 72.1946 106.847Z" fill="#FAFAFA"/>
<path d="M73.6739 104.923H75.3547C76.6051 104.923 77.457 105.693 77.457 106.847C77.457 108.001 76.6051 108.77 75.3547 108.77H73.6739V104.923ZM75.3227 108.166C75.5052 108.181 75.6888 108.158 75.862 108.099C76.0352 108.04 76.1942 107.945 76.3289 107.821C76.4636 107.697 76.5712 107.546 76.6448 107.379C76.7183 107.211 76.7563 107.03 76.7563 106.847C76.7563 106.664 76.7183 106.483 76.6448 106.315C76.5712 106.147 76.4636 105.997 76.3289 105.873C76.1942 105.749 76.0352 105.654 75.862 105.595C75.6888 105.535 75.5052 105.513 75.3227 105.528H74.4067V108.166H75.3227Z" fill="#FAFAFA"/>
<path d="M201.923 143.258V149.532H25.135V143.258C25.1215 143.007 25.1585 142.756 25.244 142.52C25.3296 142.284 25.4617 142.068 25.6327 141.884C25.8037 141.7 26.01 141.553 26.2393 141.45C26.4685 141.348 26.716 141.293 26.967 141.288H200.073C200.325 141.291 200.575 141.344 200.806 141.445C201.038 141.546 201.246 141.693 201.419 141.877C201.592 142.062 201.726 142.279 201.812 142.516C201.899 142.753 201.937 143.006 201.923 143.258Z" fill="#EBEBEB"/>
<path d="M46.2031 141.288H35.2111V149.532H46.2031V141.288Z" fill="#F5F5F5"/>
<path d="M66.8131 141.288H56.2791V149.532H66.8131V141.288Z" fill="#F5F5F5"/>
<path d="M87.881 141.288H76.889V149.532H87.881V141.288Z" fill="#F5F5F5"/>
<path d="M108.491 141.288H97.957V149.532H108.491V141.288Z" fill="#F5F5F5"/>
<path d="M129.101 141.288H118.567V149.532H129.101V141.288Z" fill="#F5F5F5"/>
<path d="M150.169 141.288H139.177V149.532H150.169V141.288Z" fill="#F5F5F5"/>
<path d="M170.779 141.288H160.245V149.532H170.779V141.288Z" fill="#F5F5F5"/>
<path d="M191.847 141.288H180.855V149.532H191.847V141.288Z" fill="#F5F5F5"/>
<path d="M63.3638 41.8068C69.8581 39.1168 72.9421 31.6714 70.252 25.1771C67.562 18.6828 60.1166 15.5988 53.6223 18.2889C47.128 20.9789 44.0441 28.4243 46.7341 34.9186C49.4241 41.4129 56.8695 44.4968 63.3638 41.8068Z" fill="#FAFAFA"/>
<path d="M51.8868 29.9074C51.8869 29.5628 51.8065 29.223 51.652 28.915C51.4975 28.6069 51.2732 28.3393 50.997 28.1333C50.7207 27.9273 50.4001 27.7888 50.0609 27.7286C49.7216 27.6685 49.3729 27.6884 49.0427 27.7869C49.133 27.125 49.0815 26.4515 48.8915 25.811C48.7016 25.1706 48.3775 24.5779 47.9408 24.0724C47.5041 23.5668 46.9649 23.16 46.3589 22.8789C45.7529 22.5978 45.094 22.4489 44.426 22.442C44.1355 22.4413 43.8456 22.4689 43.5604 22.5244C43.099 21.7648 42.4029 21.176 41.5773 20.8468C40.7517 20.5176 39.8415 20.466 38.984 20.6998C38.1265 20.9336 37.3683 21.44 36.824 22.1426C36.2797 22.8452 35.9788 23.7059 35.9668 24.5946H35.8981C34.8972 24.5946 33.9373 24.9922 33.2295 25.7C32.5218 26.4077 32.1241 27.3676 32.1241 28.3685C32.1241 29.3694 32.5218 30.3293 33.2295 31.0371C33.9373 31.7448 34.8972 32.1424 35.8981 32.1424H49.7388C50.3187 32.1268 50.8692 31.8836 51.2711 31.4654C51.6731 31.0471 51.8943 30.4875 51.8868 29.9074Z" fill="#F0F0F0"/>
<path d="M193.226 64.7062C193.226 64.4157 193.168 64.1281 193.057 63.8597C192.946 63.5913 192.783 63.3474 192.578 63.142C192.372 62.9366 192.128 62.7737 191.86 62.6625C191.592 62.5513 191.304 62.4941 191.013 62.4941C190.798 62.4955 190.583 62.5279 190.377 62.5903C190.41 62.3643 190.427 62.1363 190.427 61.9079C190.42 60.67 189.923 59.4853 189.045 58.6126C188.167 57.7398 186.98 57.25 185.742 57.25C185.453 57.2503 185.165 57.2764 184.881 57.3279C184.419 56.5682 183.723 55.9794 182.898 55.6502C182.072 55.321 181.162 55.2695 180.304 55.5032C179.447 55.737 178.689 56.2434 178.144 56.946C177.6 57.6487 177.299 58.5093 177.287 59.398H177.218C176.723 59.398 176.232 59.4956 175.774 59.6853C175.316 59.875 174.9 60.1529 174.55 60.5034C174.199 60.8538 173.922 61.2699 173.732 61.7277C173.542 62.1856 173.445 62.6763 173.445 63.1719C173.445 63.6675 173.542 64.1583 173.732 64.6162C173.922 65.074 174.199 65.4901 174.55 65.8405C174.9 66.191 175.316 66.4689 175.774 66.6586C176.232 66.8483 176.723 66.9459 177.218 66.9459H191.078C191.658 66.9291 192.208 66.6849 192.61 66.2659C193.012 65.8469 193.233 65.2867 193.226 64.7062Z" fill="#F0F0F0"/>
<path d="M119.08 38.2751C119.081 37.7296 119.209 37.1918 119.454 36.7045C119.699 36.2173 120.055 35.794 120.492 35.4684C120.93 35.1428 121.438 34.9239 121.975 34.8292C122.512 34.7344 123.064 34.7663 123.587 34.9225C123.535 34.566 123.509 34.2064 123.509 33.8462C123.507 32.7556 123.746 31.6781 124.209 30.6908C124.673 29.7034 125.348 28.8306 126.188 28.1348C127.028 27.439 128.011 26.9374 129.067 26.6659C130.123 26.3943 131.227 26.3595 132.298 26.564C133.027 25.3612 134.128 24.4285 135.435 23.907C136.741 23.3855 138.182 23.3035 139.539 23.6735C140.896 24.0434 142.096 24.8451 142.957 25.9574C143.818 27.0698 144.293 28.4322 144.311 29.8387H144.421C146.004 29.8387 147.523 30.4677 148.643 31.5873C149.762 32.7069 150.391 34.2254 150.391 35.8087C150.391 37.3921 149.762 38.9106 148.643 40.0302C147.523 41.1498 146.004 41.7788 144.421 41.7788H122.497C121.582 41.7584 120.711 41.38 120.073 40.7248C119.434 40.0697 119.077 39.1901 119.08 38.2751Z" fill="#F0F0F0"/>
<path d="M56.2378 68.3244C56.2371 67.6675 56.3901 67.0195 56.6847 66.4323C56.9793 65.8452 57.4072 65.3351 57.9342 64.9429C58.4613 64.5508 59.0728 64.2874 59.7198 64.1739C60.3669 64.0605 61.0315 64.1 61.6606 64.2895C61.5998 63.8616 61.5692 63.43 61.569 62.9979C61.569 60.6325 62.5083 58.3639 64.1805 56.6908C65.8527 55.0178 68.1208 54.0773 70.4862 54.0761C71.038 54.0764 71.5884 54.1285 72.1304 54.2318C73.0042 52.7781 74.3287 51.6494 75.9026 51.0174C77.4765 50.3854 79.2138 50.2847 80.8502 50.7305C82.4867 51.1763 83.9328 52.1442 84.9688 53.4871C86.0047 54.8301 86.5738 56.4746 86.5895 58.1706H86.7177C88.6236 58.1706 90.4514 58.9277 91.799 60.2753C93.1467 61.623 93.9038 63.4508 93.9038 65.3566C93.9038 67.2625 93.1467 69.0903 91.799 70.4379C90.4514 71.7855 88.6236 72.5426 86.7177 72.5426H60.3278C59.2307 72.5116 58.1891 72.0532 57.425 71.2652C56.661 70.4772 56.235 69.422 56.2378 68.3244Z" fill="#F0F0F0"/>
<path d="M79.6462 36.5347C79.6462 36.1703 79.5014 35.8208 79.2438 35.5631C78.9861 35.3054 78.6366 35.1607 78.2722 35.1607C78.1389 35.1598 78.0063 35.1783 77.8783 35.2156C77.8967 35.0759 77.9059 34.9352 77.9058 34.7943C77.9064 34.412 77.8316 34.0333 77.6857 33.6799C77.5399 33.3265 77.3257 33.0054 77.0556 32.7348C76.7855 32.4643 76.4647 32.2496 76.1115 32.1032C75.7584 31.9568 75.3798 31.8814 74.9975 31.8814C74.8162 31.8816 74.6353 31.8985 74.4571 31.9318C74.1712 31.4585 73.7388 31.0914 73.2254 30.8861C72.7121 30.6808 72.1458 30.6484 71.6124 30.7939C71.079 30.9395 70.6076 31.2549 70.2697 31.6925C69.9317 32.1301 69.7456 32.6659 69.7397 33.2187H69.6939C69.0719 33.2187 68.4755 33.4658 68.0357 33.9056C67.596 34.3453 67.3489 34.9418 67.3489 35.5637C67.3489 36.1856 67.596 36.7821 68.0357 37.2218C68.4755 37.6616 69.0719 37.9087 69.6939 37.9087H78.318C78.6744 37.8968 79.0122 37.7468 79.2601 37.4904C79.5079 37.234 79.6464 36.8913 79.6462 36.5347Z" fill="#F0F0F0"/>
<path d="M171.846 21.6955C171.846 21.4806 171.895 21.2686 171.991 21.0764C172.088 20.8843 172.228 20.7174 172.4 20.5891C172.572 20.4608 172.772 20.3748 172.984 20.3378C173.196 20.3009 173.413 20.3141 173.619 20.3764C173.599 20.2368 173.588 20.0961 173.587 19.9551C173.587 19.1825 173.893 18.4416 174.44 17.8954C174.986 17.3491 175.727 17.0422 176.499 17.0422C176.679 17.0426 176.859 17.0595 177.035 17.0926C177.322 16.6205 177.755 16.2546 178.268 16.0501C178.782 15.8456 179.348 15.8135 179.881 15.9588C180.414 16.1041 180.885 16.4188 181.224 16.8555C181.562 17.2922 181.749 17.8271 181.757 18.3795H181.799C182.403 18.4063 182.974 18.6652 183.392 19.1025C183.811 19.5398 184.044 20.1216 184.044 20.7268C184.044 21.332 183.811 21.9138 183.392 22.3511C182.974 22.7884 182.403 23.0473 181.799 23.074H173.184C172.825 23.0645 172.484 22.9149 172.234 22.6572C171.984 22.3996 171.845 22.0544 171.846 21.6955Z" fill="#F0F0F0"/>
<path d="M114.5 170.632C163.544 170.632 203.302 168.311 203.302 165.448C203.302 162.585 163.544 160.263 114.5 160.263C65.4562 160.263 25.6984 162.585 25.6984 165.448C25.6984 168.311 65.4562 170.632 114.5 170.632Z" fill="#F5F5F5"/>
<path d="M43.8993 155.468C43.8993 155.468 41.7238 150.719 44.2107 146.038C46.6977 141.357 47.4167 140.258 45.8321 139.301C44.2474 138.343 43.5421 143.043 43.5421 143.043C42.7548 140.919 42.6729 138.598 43.3085 136.424C44.4123 133.035 45.1039 127.526 43.597 126.93C42.0902 126.335 43.3085 133.8 42.0032 136.356C41.3368 134.569 40.9072 132.703 40.7254 130.805C40.5422 128.084 40.8261 123.742 39.6353 122.63C38.4445 121.517 37.6843 122.286 38.8522 128.286C39.5569 131.871 39.9461 135.51 40.0155 139.163C40.0155 139.163 37.4323 131.295 35.7011 131.061C33.9699 130.828 33.9699 133.383 35.4538 135.595C36.9377 137.808 39.7727 141.765 40.2445 143.812C40.2445 143.812 37.4095 137.89 34.8584 139.69C32.3073 141.49 37.0797 145.085 39.2048 146.377C41.3299 147.668 42.8047 155.775 42.8047 155.775L43.8993 155.468Z" fill="#FE7622"/>
<path opacity="0.2" d="M43.8993 155.468C43.8993 155.468 41.7238 150.719 44.2107 146.038C46.6977 141.357 47.4167 140.258 45.8321 139.301C44.2474 138.343 43.5421 143.043 43.5421 143.043C42.7548 140.919 42.6729 138.598 43.3085 136.424C44.4123 133.035 45.1039 127.526 43.597 126.93C42.0902 126.335 43.3085 133.8 42.0032 136.356C41.3368 134.569 40.9072 132.703 40.7254 130.805C40.5422 128.084 40.8261 123.742 39.6353 122.63C38.4445 121.517 37.6843 122.286 38.8522 128.286C39.5569 131.871 39.9461 135.51 40.0155 139.163C40.0155 139.163 37.4323 131.295 35.7011 131.061C33.9699 130.828 33.9699 133.383 35.4538 135.595C36.9377 137.808 39.7727 141.765 40.2445 143.812C40.2445 143.812 37.4095 137.89 34.8584 139.69C32.3073 141.49 37.0797 145.085 39.2048 146.377C41.3299 147.668 42.8047 155.775 42.8047 155.775L43.8993 155.468Z" fill="black"/>
<path d="M42.1818 157.415C42.1818 157.415 44.2978 152.633 41.7559 147.994C39.214 143.354 38.472 142.259 40.0567 141.275C41.6414 140.29 42.4108 144.984 42.4108 144.984C43.17 142.85 43.2246 140.529 42.5665 138.362C41.4215 134.991 40.6658 129.49 42.1635 128.877C43.6612 128.263 42.5345 135.747 43.8718 138.275C44.5155 136.479 44.9219 134.607 45.081 132.706C45.2321 129.98 44.8978 125.643 46.0702 124.512C47.2427 123.381 48.0167 124.141 46.9221 130.159C46.2634 133.757 45.9186 137.406 45.8916 141.064C45.8916 141.064 48.3786 133.154 50.1098 132.898C51.841 132.641 51.8685 135.188 50.4121 137.423C48.9556 139.658 46.1435 143.661 45.6993 145.708C45.6993 145.708 48.4473 139.754 51.0304 141.517C53.6135 143.281 48.8778 146.945 46.7664 148.268C44.655 149.592 43.281 157.717 43.281 157.717L42.1818 157.415Z" fill="#FE7622"/>
<path d="M51.951 154.007H34.4508L35.866 166.529H50.5357L51.951 154.007Z" fill="#263238"/>
<path d="M188.366 28.3456H120.743C118.2 28.3456 116.14 30.4064 116.14 32.9485V161.926C116.14 164.468 118.2 166.529 120.743 166.529H188.366C190.908 166.529 192.969 164.468 192.969 161.926V32.9485C192.969 30.4064 190.908 28.3456 188.366 28.3456Z" fill="#263238"/>
<path d="M190.377 32.976V161.674C190.376 161.924 190.326 162.171 190.229 162.401C190.132 162.631 189.991 162.84 189.813 163.015C189.635 163.19 189.424 163.328 189.192 163.421C188.96 163.514 188.712 163.56 188.462 163.556H120.454C120.227 163.56 120.002 163.517 119.792 163.431C119.582 163.345 119.392 163.218 119.232 163.057C119.073 162.895 118.948 162.704 118.864 162.493C118.78 162.282 118.74 162.056 118.746 161.83V32.8203C118.738 32.6206 118.769 32.4212 118.838 32.2337C118.907 32.0461 119.013 31.8741 119.149 31.7273C119.284 31.5806 119.448 31.462 119.629 31.3784C119.811 31.2948 120.007 31.2478 120.207 31.2402H137.212C137.451 31.2446 137.682 31.3196 137.878 31.4558C138.074 31.5919 138.224 31.7831 138.311 32.005L139.012 33.7363C139.099 33.9569 139.249 34.1466 139.444 34.2812C139.639 34.4158 139.87 34.4892 140.107 34.492H169.048C169.284 34.4922 169.514 34.4215 169.709 34.2892C169.904 34.157 170.055 33.9691 170.142 33.75L170.848 32.005C170.934 31.7835 171.084 31.5925 171.279 31.4563C171.474 31.3201 171.705 31.2449 171.942 31.2402H188.696C189.148 31.251 189.577 31.4391 189.892 31.7638C190.206 32.0886 190.381 32.524 190.377 32.976Z" fill="#FE7622"/>
<path opacity="0.1" d="M186.667 31.2402C180.324 48.7953 159.705 97.0227 118.732 116.689V32.8203C118.724 32.6206 118.755 32.4212 118.825 32.2337C118.894 32.0461 118.999 31.8741 119.135 31.7273C119.271 31.5806 119.434 31.462 119.615 31.3784C119.797 31.2948 119.993 31.2478 120.193 31.2402H137.198C137.437 31.2446 137.669 31.3196 137.864 31.4558C138.06 31.5919 138.211 31.7831 138.298 32.005L138.998 33.7363C139.085 33.9569 139.235 34.1466 139.43 34.2812C139.625 34.4158 139.856 34.4892 140.093 34.492H169.048C169.284 34.4922 169.514 34.4215 169.709 34.2892C169.904 34.157 170.055 33.9691 170.142 33.75L170.848 32.005C170.934 31.7835 171.084 31.5925 171.279 31.4563C171.474 31.3201 171.705 31.2449 171.942 31.2402H186.667Z" fill="white"/>
<path opacity="0.1" d="M190.377 94.348V161.674C190.376 161.924 190.326 162.171 190.229 162.401C190.132 162.631 189.991 162.84 189.813 163.015C189.635 163.19 189.424 163.328 189.192 163.421C188.96 163.514 188.712 163.56 188.462 163.556H120.454C120.227 163.56 120.002 163.517 119.792 163.431C119.582 163.345 119.392 163.218 119.232 163.057C119.073 162.895 118.948 162.704 118.864 162.493C118.78 162.282 118.74 162.056 118.746 161.83V131.208C137.656 106.293 170.188 97.4624 190.377 94.348Z" fill="white"/>
<path opacity="0.6" d="M154.543 31.4096C154.543 31.6044 154.485 31.7948 154.377 31.9567C154.269 32.1186 154.115 32.2449 153.935 32.3194C153.755 32.3939 153.557 32.4134 153.366 32.3754C153.175 32.3374 153 32.2436 152.862 32.1059C152.724 31.9682 152.63 31.7928 152.592 31.6017C152.554 31.4107 152.574 31.2127 152.649 31.0328C152.723 30.8529 152.849 30.6991 153.011 30.5909C153.173 30.4827 153.363 30.4249 153.558 30.4249C153.819 30.4261 154.069 30.5303 154.253 30.7147C154.438 30.8991 154.542 31.1489 154.543 31.4096Z" fill="white"/>
<path opacity="0.6" d="M156.531 31.4096C156.517 31.5674 156.445 31.7143 156.328 31.8214C156.212 31.9285 156.059 31.9879 155.901 31.9879C155.743 31.9879 155.59 31.9285 155.473 31.8214C155.357 31.7143 155.285 31.5674 155.271 31.4096C155.264 31.3224 155.274 31.2346 155.303 31.1518C155.331 31.0689 155.376 30.9929 155.435 30.9284C155.495 30.8639 155.567 30.8125 155.647 30.7772C155.727 30.742 155.813 30.7238 155.901 30.7238C155.988 30.7238 156.075 30.742 156.155 30.7772C156.235 30.8125 156.307 30.8639 156.366 30.9284C156.426 30.9929 156.471 31.0689 156.499 31.1518C156.527 31.2346 156.538 31.3224 156.531 31.4096Z" fill="white"/>
<path opacity="0.5" d="M188.98 39.475H119.405V157.529H188.98V39.475Z" fill="white"/>
<path d="M187.088 53.5127H121.288V70.4587H187.088V53.5127Z" fill="white"/>
<path d="M187.088 71.3839H121.288V88.3299H187.088V71.3839Z" fill="white"/>
<path d="M187.088 41.9803H121.288V52.125H187.088V41.9803Z" fill="#FE7622"/>
<g opacity="0.5">
<path d="M143.459 63.8177L142.704 62.801L141.948 63.8177H141.188L142.333 62.3292L141.238 60.8865H142.003L142.722 61.8483L143.441 60.8865H144.183L143.084 62.3201L144.233 63.8177H143.459Z" fill="black"/>
<path d="M147.343 63.204V63.8086H144.508V63.3506L146.038 61.8987C146.409 61.5415 146.496 61.317 146.496 61.1064C146.496 60.7537 146.253 60.5476 145.781 60.5476C145.608 60.5367 145.434 60.5677 145.274 60.6378C145.115 60.7079 144.975 60.8152 144.865 60.9506L144.366 60.5659C144.543 60.3531 144.767 60.1847 145.021 60.0741C145.275 59.9636 145.551 59.914 145.827 59.9293C146.661 59.9293 147.201 60.3507 147.201 61.0331C147.195 61.2707 147.135 61.5038 147.025 61.7142C146.914 61.9247 146.757 62.1069 146.565 62.2468L145.53 63.204H147.343Z" fill="black"/>
</g>
<path d="M173.417 62.2101C173.418 62.8165 173.239 63.4096 172.903 63.9141C172.566 64.4187 172.088 64.8122 171.528 65.0446C170.968 65.2771 170.351 65.3382 169.756 65.2201C169.162 65.102 168.615 64.8101 168.187 64.3813C167.758 63.9525 167.466 63.4061 167.348 62.8114C167.23 62.2166 167.291 61.6001 167.523 61.0401C167.756 60.48 168.149 60.0015 168.654 59.6652C169.158 59.3288 169.751 59.1498 170.358 59.1507C171.169 59.1519 171.946 59.4746 172.52 60.0481C173.093 60.6216 173.416 61.3991 173.417 62.2101Z" fill="#FE7622"/>
<path d="M170.587 60.5018H170.129V63.9231H170.587V60.5018Z" fill="white"/>
<path d="M172.066 61.9811H168.645V62.4391H172.066V61.9811Z" fill="white"/>
<path d="M182.582 62.2101C182.582 62.8152 182.402 63.4068 182.066 63.9099C181.73 64.413 181.252 64.8051 180.693 65.0367C180.134 65.2683 179.519 65.3288 178.925 65.2108C178.332 65.0927 177.787 64.8014 177.359 64.3735C176.931 63.9456 176.64 63.4005 176.522 62.807C176.404 62.2135 176.464 61.5984 176.696 61.0393C176.927 60.4803 177.319 60.0025 177.823 59.6663C178.326 59.3301 178.917 59.1507 179.522 59.1507C180.333 59.1519 181.111 59.4746 181.684 60.0481C182.258 60.6216 182.58 61.3991 182.582 62.2101Z" fill="#FE7622"/>
<path d="M181.231 61.9811H177.809V62.4391H181.231V61.9811Z" fill="white"/>
<path d="M126.82 65.036C126.625 65.1045 126.439 65.1968 126.266 65.3108C126.189 65.5184 126.159 65.7402 126.176 65.9608C126.194 66.1814 126.259 66.3956 126.367 66.5886C126.596 66.7672 129.055 67.1886 130.338 67.0924C131.62 66.9962 132.88 67.0924 134.258 67.0924C135.637 67.0924 138.256 66.8817 138.421 66.5886C138.507 66.4001 138.551 66.1955 138.551 65.9886C138.551 65.7817 138.507 65.5772 138.421 65.3887C137.844 64.9254 137.118 64.6892 136.379 64.7246C135.536 64.8391 126.82 65.036 126.82 65.036Z" fill="#FE7622"/>
<path opacity="0.3" d="M126.82 65.036C126.625 65.1045 126.439 65.1968 126.266 65.3108C126.189 65.5184 126.159 65.7402 126.176 65.9608C126.194 66.1814 126.259 66.3956 126.367 66.5886C126.596 66.7672 129.055 67.1886 130.338 67.0924C131.62 66.9962 132.88 67.0924 134.258 67.0924C135.637 67.0924 138.256 66.8817 138.421 66.5886C138.507 66.4001 138.551 66.1955 138.551 65.9886C138.551 65.7817 138.507 65.5772 138.421 65.3887C137.844 64.9254 137.118 64.6892 136.379 64.7246C135.536 64.8391 126.82 65.036 126.82 65.036Z" fill="white"/>
<path d="M126.71 64.207C126.669 64.4543 126.577 65.0039 126.71 65.123C127.453 65.4634 128.28 65.5765 129.087 65.4482C129.986 65.3483 130.891 65.3161 131.794 65.352C133.315 65.352 133.947 65.4161 134.258 65.352C134.57 65.2879 134.986 65.2558 135.536 65.2238C136.086 65.1917 136.864 65.1276 137.075 65.1276C137.286 65.1276 137.4 65.2742 137.675 65.1276C137.856 65.0234 138.043 64.9286 138.234 64.8436C138.234 64.8436 138.211 64.5139 138.11 64.4635C138.009 64.4131 137.95 64.4635 137.931 64.3536C137.913 64.2437 137.931 64.2711 137.867 64.1658C137.803 64.0605 137.675 63.9231 137.675 63.9231L126.71 64.207Z" fill="#263238"/>
<path opacity="0.2" d="M126.71 64.207C126.669 64.4543 126.577 65.0039 126.71 65.123C127.453 65.4634 128.28 65.5765 129.087 65.4482C129.986 65.3483 130.891 65.3161 131.794 65.352C133.315 65.352 133.947 65.4161 134.258 65.352C134.57 65.2879 134.986 65.2558 135.536 65.2238C136.086 65.1917 136.864 65.1276 137.075 65.1276C137.286 65.1276 137.4 65.2742 137.675 65.1276C137.856 65.0234 138.043 64.9286 138.234 64.8436C138.234 64.8436 138.211 64.5139 138.11 64.4635C138.009 64.4131 137.95 64.4635 137.931 64.3536C137.913 64.2437 137.931 64.2711 137.867 64.1658C137.803 64.0605 137.675 63.9231 137.675 63.9231L126.71 64.207Z" fill="white"/>
<path d="M131.098 64.3856C131.577 64.573 132.091 64.6573 132.605 64.633C132.981 64.6099 133.359 64.6099 133.736 64.633C134.125 64.665 133.979 64.4956 134.418 64.7246C134.858 64.9536 134.84 65.1826 135.536 64.8391C136.232 64.4956 136.315 64.4543 136.603 64.4543C136.819 64.4826 137.039 64.4591 137.244 64.3856C137.496 64.2895 138.234 64.0467 138.234 64.0467C138.234 64.0467 138.256 63.7078 137.624 63.6895C136.992 63.6712 130.296 63.8864 130.109 64.0467C129.921 64.207 131.098 64.3856 131.098 64.3856Z" fill="#FE7622"/>
<path opacity="0.2" d="M131.098 64.3856C131.577 64.573 132.091 64.6573 132.605 64.633C132.981 64.6099 133.359 64.6099 133.736 64.633C134.125 64.665 133.979 64.4956 134.418 64.7246C134.858 64.9536 134.84 65.1826 135.536 64.8391C136.232 64.4956 136.315 64.4543 136.603 64.4543C136.819 64.4826 137.039 64.4591 137.244 64.3856C137.496 64.2895 138.234 64.0467 138.234 64.0467C138.234 64.0467 138.256 63.7078 137.624 63.6895C136.992 63.6712 130.296 63.8864 130.109 64.0467C129.921 64.207 131.098 64.3856 131.098 64.3856Z" fill="black"/>
<path d="M127.374 63.6895C127.374 63.6895 126.303 63.8544 126.271 64.0467C126.239 64.2391 126.449 64.2574 126.6 64.3856C126.694 64.466 126.769 64.5661 126.82 64.6788C126.933 64.5953 127.064 64.5401 127.203 64.5178C127.342 64.4955 127.484 64.5067 127.617 64.5505C127.988 64.7291 128.167 64.7429 128.263 64.6788C128.359 64.6146 128.574 64.7658 128.895 64.7154C129.083 64.6793 129.275 64.6793 129.463 64.7154C129.674 64.7154 129.98 64.3444 130.159 64.3765C130.507 64.3081 130.844 64.1941 131.162 64.0376L127.374 63.6895Z" fill="#FE7622"/>
<path d="M126.66 62.1827C126.575 62.4164 126.575 62.6725 126.66 62.9063C126.732 63.2599 126.732 63.6245 126.66 63.978C127.237 63.8636 127.832 63.8636 128.409 63.978C129.284 64.175 129.477 64.523 130.319 64.3307C130.713 64.1836 131.132 64.1166 131.551 64.1337C132.197 64.1337 133.072 63.8589 133.841 63.978C134.611 64.0971 135.6 63.8589 135.628 63.978C135.655 64.0971 137.148 63.978 137.148 63.978C137.148 63.978 137.858 63.8223 137.858 63.6666C137.858 63.5109 137.762 61.8804 137.762 61.8804L126.66 62.1827Z" fill="#263238"/>
<path d="M128.895 63.5933C128.895 63.5933 132.165 63.4651 132.605 63.4651C133.044 63.4651 133.415 63.5292 134.157 63.5292C134.69 63.5822 135.225 63.6036 135.76 63.5933C136.493 63.5292 137.134 63.5933 137.235 63.5383C136.927 63.5676 136.621 63.6181 136.319 63.6895C136.041 63.7675 135.752 63.8015 135.463 63.7902C135.253 63.7213 135.033 63.6873 134.812 63.6895C134.767 63.7215 134.354 63.6895 134.263 63.8086C134.171 63.9276 134.134 64.404 134.084 64.3856C133.937 64.1868 133.742 64.0291 133.516 63.9276C133.131 63.7719 132.522 63.5475 132.435 63.6895C132.348 63.8315 131.803 63.7399 131.625 63.9276C131.457 64.0783 131.248 64.1755 131.025 64.207C130.947 64.2116 128.895 63.5933 128.895 63.5933Z" fill="#FE7622"/>
<path d="M126.559 62.1414C126.523 62.3888 126.431 62.9338 126.559 63.0574C126.687 63.1811 127.626 63.5154 128.941 63.378C129.838 63.278 130.741 63.2459 131.643 63.2819C133.168 63.2819 133.8 63.346 134.107 63.2819C134.53 63.2156 134.957 63.1713 135.385 63.149C135.939 63.117 136.713 63.0529 136.924 63.0529C137.134 63.0529 137.249 63.1994 137.524 63.0529C137.704 62.9461 137.891 62.8498 138.082 62.7643C138.082 62.7643 138.06 62.4346 137.963 62.3888C137.867 62.343 137.798 62.3888 137.785 62.2743C137.771 62.1598 137.785 62.1918 137.721 62.0865L137.524 61.8437L126.559 62.1414Z" fill="#263238"/>
<path opacity="0.2" d="M126.559 62.1414C126.523 62.3888 126.431 62.9338 126.559 63.0574C126.687 63.1811 127.626 63.5154 128.941 63.378C129.838 63.278 130.741 63.2459 131.643 63.2819C133.168 63.2819 133.8 63.346 134.107 63.2819C134.53 63.2156 134.957 63.1713 135.385 63.149C135.939 63.117 136.713 63.0529 136.924 63.0529C137.134 63.0529 137.249 63.1994 137.524 63.0529C137.704 62.9461 137.891 62.8498 138.082 62.7643C138.082 62.7643 138.06 62.4346 137.963 62.3888C137.867 62.343 137.798 62.3888 137.785 62.2743C137.771 62.1598 137.785 62.1918 137.721 62.0865L137.524 61.8437L126.559 62.1414Z" fill="white"/>
<path d="M129.967 61.5689L134.112 64.0467L137.675 61.4544L129.967 61.5689Z" fill="#FE7622"/>
<path opacity="0.6" d="M129.967 61.5689L134.112 64.0467L137.675 61.4544L129.967 61.5689Z" fill="white"/>
<path d="M126.266 61.5048L127.617 63.7719L133.154 61.6193L126.266 61.5048Z" fill="#FE7622"/>
<path opacity="0.6" d="M126.266 61.5048L127.617 63.7719L133.154 61.6193L126.266 61.5048Z" fill="white"/>
<path d="M126.564 61.6514C126.564 61.6514 125.849 62.3292 126.078 62.5262C126.307 62.7231 126.032 63.0116 126.032 63.0116C126.468 62.8657 126.939 62.8657 127.374 63.0116C128.007 63.2046 128.683 63.2046 129.316 63.0116C129.738 62.8834 130.69 62.8468 131.002 62.6223C131.372 62.2656 131.708 61.8746 132.005 61.4544L126.564 61.6514Z" fill="#FE7622"/>
<path d="M133.04 61.4544C133.04 61.4544 134.194 62.6544 135.018 62.746C135.843 62.8376 135.957 62.6498 136.928 62.746C137.899 62.8422 138 63.1261 138.16 62.7735C138.243 62.2823 138.243 61.7807 138.16 61.2896L133.04 61.4544Z" fill="#FE7622"/>
<path opacity="0.2" d="M126.564 61.6514C126.564 61.6514 125.849 62.3292 126.078 62.5262C126.307 62.7231 126.032 63.0116 126.032 63.0116C126.468 62.8657 126.939 62.8657 127.374 63.0116C128.007 63.2046 128.683 63.2046 129.316 63.0116C129.738 62.8834 130.69 62.8468 131.002 62.6223C131.372 62.2656 131.708 61.8746 132.005 61.4544L126.564 61.6514Z" fill="black"/>
<path opacity="0.2" d="M133.04 61.4544C133.04 61.4544 134.194 62.6544 135.018 62.746C135.843 62.8376 135.957 62.6498 136.928 62.746C137.899 62.8422 138 63.1261 138.16 62.7735C138.243 62.2823 138.243 61.7807 138.16 61.2896L133.04 61.4544Z" fill="black"/>
<path d="M126.431 65.036C126.696 64.9378 126.977 64.8882 127.26 64.8894C127.439 64.9536 129.509 65.1459 129.71 65.1459C130.035 65.0803 130.37 65.0803 130.695 65.1459C131.098 65.2742 131.048 65.3749 131.634 65.2604C131.972 65.1664 132.319 65.1096 132.669 65.091C132.976 65.091 133.04 65.0039 133.269 65.091C133.593 65.1949 133.932 65.2459 134.272 65.2421C134.643 65.2421 134.62 65.4574 135.165 65.2879C135.47 65.1436 135.799 65.0581 136.136 65.036C136.443 65.036 136.832 65.0039 136.979 65.036C137.125 65.0681 137.034 64.9719 137.4 65.036C137.59 65.0776 137.788 65.06 137.968 64.9856C138.051 65.0622 138.14 65.1326 138.234 65.1963C138.339 65.2604 137.739 65.3154 137.528 65.352C137.318 65.3887 137.592 65.3841 137.07 65.4986C136.548 65.6131 136.699 65.6955 136.296 65.6818C135.893 65.668 135.93 65.7184 135.65 65.6818C135.371 65.6451 135.467 65.8238 134.95 65.6818C134.585 65.5791 134.21 65.5131 133.832 65.4848C133.75 65.4848 134.093 65.439 133.589 65.5719C133.086 65.7047 133.443 65.5948 132.811 65.7276C132.179 65.8604 132.293 66.007 131.895 65.8467C131.496 65.6864 131.437 65.6497 131.249 65.7001C131.061 65.7505 131.217 65.7505 130.942 65.7642C130.667 65.778 130.777 65.7642 130.484 65.7642C130.072 65.8356 129.656 65.88 129.238 65.897C128.932 65.897 128.51 65.7138 128.3 65.7138C128.042 65.6789 127.787 65.63 127.535 65.5673C127.214 65.5215 126.985 65.5673 126.889 65.4665C126.793 65.3658 126.431 65.036 126.431 65.036Z" fill="#FE7622"/>
<path opacity="0.2" d="M126.431 65.036C126.696 64.9378 126.977 64.8882 127.26 64.8894C127.439 64.9536 129.509 65.1459 129.71 65.1459C130.035 65.0803 130.37 65.0803 130.695 65.1459C131.098 65.2742 131.048 65.3749 131.634 65.2604C131.972 65.1664 132.319 65.1096 132.669 65.091C132.976 65.091 133.04 65.0039 133.269 65.091C133.593 65.1949 133.932 65.2459 134.272 65.2421C134.643 65.2421 134.62 65.4574 135.165 65.2879C135.47 65.1436 135.799 65.0581 136.136 65.036C136.443 65.036 136.832 65.0039 136.979 65.036C137.125 65.0681 137.034 64.9719 137.4 65.036C137.59 65.0776 137.788 65.06 137.968 64.9856C138.051 65.0622 138.14 65.1326 138.234 65.1963C138.339 65.2604 137.739 65.3154 137.528 65.352C137.318 65.3887 137.592 65.3841 137.07 65.4986C136.548 65.6131 136.699 65.6955 136.296 65.6818C135.893 65.668 135.93 65.7184 135.65 65.6818C135.371 65.6451 135.467 65.8238 134.95 65.6818C134.585 65.5791 134.21 65.5131 133.832 65.4848C133.75 65.4848 134.093 65.439 133.589 65.5719C133.086 65.7047 133.443 65.5948 132.811 65.7276C132.179 65.8604 132.293 66.007 131.895 65.8467C131.496 65.6864 131.437 65.6497 131.249 65.7001C131.061 65.7505 131.217 65.7505 130.942 65.7642C130.667 65.778 130.777 65.7642 130.484 65.7642C130.072 65.8356 129.656 65.88 129.238 65.897C128.932 65.897 128.51 65.7138 128.3 65.7138C128.042 65.6789 127.787 65.63 127.535 65.5673C127.214 65.5215 126.985 65.5673 126.889 65.4665C126.793 65.3658 126.431 65.036 126.431 65.036Z" fill="black"/>
<path d="M138.669 61.9766C138.843 61.8895 138.742 61.5918 138.742 61.3949C138.742 59.1507 135.847 57.3324 132.28 57.3324C128.712 57.3324 125.817 59.1644 125.817 61.3949C125.817 61.5918 125.748 61.8529 125.89 61.9766C126.376 62.4346 129.275 61.917 132.302 61.8758C135.069 61.83 137.968 62.3155 138.669 61.9766Z" fill="#FE7622"/>
<path opacity="0.3" d="M138.669 61.9766C138.843 61.8895 138.742 61.5918 138.742 61.3949C138.742 59.1507 135.847 57.3324 132.28 57.3324C128.712 57.3324 125.817 59.1644 125.817 61.3949C125.817 61.5918 125.748 61.8529 125.89 61.9766C126.376 62.4346 129.275 61.917 132.302 61.8758C135.069 61.83 137.968 62.3155 138.669 61.9766Z" fill="white"/>
<path d="M132.289 58.0881C132.289 58.0881 132.44 58.4271 132.289 58.4271C132.138 58.4271 132.289 58.0881 132.289 58.0881Z" fill="#FE7622"/>
<path d="M134.162 58.0881C134.162 58.0881 134.808 58.1843 134.712 58.2576C134.615 58.3309 134.162 58.0881 134.162 58.0881Z" fill="#FE7622"/>
<path d="M130.667 58.0881C130.667 58.0881 130.287 58.3309 130.209 58.2713C130.132 58.2118 130.667 58.0881 130.667 58.0881Z" fill="#FE7622"/>
<g opacity="0.5">
<path d="M142.333 81.5561L141.577 80.5393L140.821 81.5561H140.061L141.206 80.0676L140.111 78.6203H140.876L141.595 79.5821L142.314 78.6203H143.056L141.957 80.0538L143.107 81.5561H142.333Z" fill="black"/>
<path d="M144.788 77.7089V81.5561H144.073V78.318H143.262V77.718L144.788 77.7089Z" fill="black"/>
</g>
<path d="M172.29 79.9485C172.291 80.5547 172.112 81.1475 171.776 81.652C171.44 82.1565 170.962 82.5499 170.402 82.7825C169.842 83.0151 169.226 83.0765 168.632 82.9588C168.037 82.8411 167.49 82.5496 167.061 82.1213C166.633 81.6929 166.34 81.147 166.222 80.5525C166.103 79.958 166.163 79.3417 166.395 78.7816C166.627 78.2214 167.02 77.7426 167.524 77.4057C168.028 77.0689 168.62 76.889 169.226 76.889C170.038 76.889 170.817 77.2112 171.391 77.7849C171.966 78.3585 172.289 79.1366 172.29 79.9485Z" fill="#FE7622"/>
<path d="M169.455 78.2356H168.997V81.6568H169.455V78.2356Z" fill="white"/>
<path d="M170.939 79.7195H167.518V80.1775H170.939V79.7195Z" fill="white"/>
<path d="M181.455 79.9485C181.456 80.5549 181.277 81.1479 180.941 81.6525C180.604 82.1571 180.126 82.5505 179.566 82.783C179.006 83.0154 178.389 83.0765 177.794 82.9584C177.2 82.8403 176.653 82.5484 176.224 82.1196C175.796 81.6909 175.504 81.1445 175.386 80.5497C175.268 79.9549 175.329 79.3385 175.561 78.7784C175.794 78.2183 176.187 77.7398 176.692 77.4035C177.196 77.0672 177.789 76.8881 178.396 76.889C178.797 76.889 179.195 76.9682 179.566 77.1219C179.938 77.2757 180.275 77.501 180.559 77.7851C180.843 78.0692 181.068 78.4065 181.222 78.7777C181.376 79.1489 181.455 79.5467 181.455 79.9485Z" fill="#FE7622"/>
<path d="M180.104 79.7195H176.683V80.1775H180.104V79.7195Z" fill="white"/>
<path d="M132.44 74.6036H129.88C129.164 74.8631 128.543 75.3332 128.099 75.952C127.655 76.5707 127.409 77.3093 127.393 78.0707H134.922C134.907 77.3097 134.662 76.5712 134.218 75.9524C133.775 75.3335 133.155 74.8633 132.44 74.6036Z" fill="#FE7622"/>
<path opacity="0.6" d="M132.44 74.6036H129.88C129.164 74.8631 128.543 75.3332 128.099 75.952C127.655 76.5707 127.409 77.3093 127.393 78.0707H134.922C134.907 77.3097 134.662 76.5712 134.218 75.9524C133.775 75.3335 133.155 74.8633 132.44 74.6036Z" fill="white"/>
<path opacity="0.2" d="M130.658 72.5272L130.131 72.6223L131.589 80.713L132.117 80.6179L130.658 72.5272Z" fill="black"/>
<path d="M134.354 86.4429L135.037 78.144H127.278L127.965 86.4429H134.354Z" fill="#FE7622"/>
<path d="M135.389 78.6981H126.93L127.072 77.4799H135.247L135.389 78.6981Z" fill="#FE7622"/>
<path opacity="0.4" d="M135.389 78.6981H126.93L127.072 77.4799H135.247L135.389 78.6981Z" fill="white"/>
<path d="M187.088 90.1023H121.288V100.247H187.088V90.1023Z" fill="#FE7622"/>
<path d="M145.081 94.2793C145.081 95.1266 144.453 95.6533 143.441 95.6533H142.575V96.7617H141.861V92.919H143.441C144.453 92.9145 145.081 93.432 145.081 94.2793ZM144.362 94.2793C144.362 93.7984 144.036 93.519 143.409 93.519H142.575V95.0442H143.409C144.036 95.0442 144.362 94.7648 144.362 94.2793Z" fill="white"/>
<path d="M148.158 95.0396V96.7571H147.508V96.3999C147.402 96.5388 147.262 96.6484 147.102 96.7181C146.942 96.7878 146.766 96.8154 146.592 96.7983C145.923 96.7983 145.497 96.4273 145.497 95.9189C145.497 95.4106 145.827 95.0442 146.72 95.0442H147.476V94.9984C147.476 94.5999 147.233 94.3617 146.743 94.3617C146.423 94.3584 146.11 94.4615 145.855 94.6549L145.584 94.1556C145.949 93.905 146.384 93.7782 146.826 93.7938C147.668 93.7938 148.158 94.1923 148.158 95.0396ZM147.471 95.8411V95.5022H146.762C146.304 95.5022 146.171 95.6762 146.171 95.8915C146.171 96.1067 146.377 96.2991 146.729 96.2991C146.886 96.3104 147.042 96.2723 147.176 96.1902C147.31 96.108 147.415 95.9859 147.476 95.8411H147.471Z" fill="white"/>
<path d="M151.731 93.8259L150.357 96.9952C150.295 97.2469 150.15 97.47 149.944 97.6274C149.738 97.7849 149.485 97.8672 149.226 97.8609C148.94 97.867 148.661 97.773 148.438 97.5952L148.713 97.0868C148.85 97.2176 149.032 97.2912 149.221 97.2929C149.464 97.2929 149.606 97.1739 149.739 96.8853L149.784 96.7708L148.507 93.8259H149.221L150.137 95.9968L151.053 93.8259H151.731Z" fill="white"/>
<path d="M157.067 95.0762V96.7571H156.38V95.1678C156.38 94.6457 156.137 94.3892 155.72 94.3892C155.303 94.3892 154.955 94.6869 154.955 95.2686V96.7571H154.268V95.1678C154.268 94.6457 154.03 94.3892 153.609 94.3892C153.187 94.3892 152.848 94.6869 152.848 95.2686V96.7571H152.161V93.8259H152.816V94.1969C152.936 94.0633 153.084 93.9579 153.25 93.8882C153.415 93.8186 153.594 93.7863 153.774 93.7938C153.967 93.78 154.16 93.8177 154.334 93.903C154.508 93.9883 154.656 94.1181 154.763 94.2793C154.897 94.1204 155.066 93.9941 155.257 93.91C155.447 93.8259 155.654 93.7862 155.862 93.7938C156.03 93.7805 156.2 93.8051 156.357 93.866C156.515 93.9269 156.657 94.0225 156.772 94.1456C156.888 94.2687 156.975 94.4163 157.025 94.5774C157.076 94.7385 157.09 94.909 157.067 95.0762Z" fill="white"/>
<path d="M160.721 95.5113H158.431C158.475 95.7252 158.595 95.9155 158.77 96.0457C158.945 96.1759 159.162 96.2368 159.379 96.2166C159.527 96.2222 159.675 96.1965 159.812 96.1413C159.949 96.086 160.074 96.0025 160.176 95.896L160.543 96.3174C160.394 96.4809 160.211 96.609 160.007 96.6922C159.802 96.7755 159.582 96.8117 159.361 96.7983C159.154 96.8163 158.945 96.7905 158.748 96.7226C158.551 96.6547 158.37 96.5463 158.218 96.4042C158.065 96.2622 157.945 96.0898 157.863 95.8981C157.781 95.7064 157.741 95.4998 157.744 95.2915C157.739 95.0917 157.774 94.8928 157.848 94.7072C157.923 94.5217 158.034 94.3534 158.177 94.2129C158.319 94.0724 158.488 93.9627 158.675 93.8906C158.861 93.8185 159.061 93.7856 159.26 93.7938C159.46 93.7857 159.659 93.8196 159.845 93.8934C160.03 93.9672 160.198 94.0793 160.338 94.2222C160.477 94.3652 160.585 94.5359 160.654 94.7233C160.724 94.9106 160.753 95.1105 160.74 95.3098C160.731 95.3648 160.726 95.4472 160.721 95.5113ZM158.431 95.0533H160.099C160.077 94.8517 159.979 94.6661 159.825 94.5342C159.671 94.4023 159.472 94.3341 159.27 94.3434C159.063 94.3302 158.86 94.3963 158.7 94.5283C158.541 94.6603 158.438 94.8481 158.413 95.0533H158.431Z" fill="white"/>
<path d="M164.285 95.0762V96.7571H163.598V95.1678C163.598 94.6457 163.337 94.3892 162.897 94.3892C162.782 94.3827 162.667 94.4017 162.561 94.4449C162.454 94.488 162.358 94.5542 162.281 94.6387C162.203 94.7232 162.144 94.8239 162.11 94.9336C162.076 95.0433 162.066 95.1593 162.082 95.2732V96.7571H161.395V93.8259H162.045V94.206C162.173 94.067 162.33 93.958 162.505 93.8867C162.68 93.8154 162.868 93.7837 163.057 93.7938C163.227 93.7803 163.397 93.8046 163.556 93.8651C163.715 93.9256 163.858 94.0207 163.975 94.1435C164.093 94.2663 164.182 94.4137 164.235 94.575C164.289 94.7363 164.306 94.9076 164.285 95.0762Z" fill="white"/>
<path d="M166.923 96.6014C166.729 96.7356 166.498 96.8046 166.263 96.7983C166.129 96.813 165.993 96.7977 165.865 96.7535C165.737 96.7094 165.62 96.6374 165.523 96.5428C165.427 96.4482 165.352 96.3334 165.305 96.2065C165.258 96.0796 165.239 95.9439 165.251 95.809V94.3984H164.77V93.8488H165.251V93.1755H165.938V93.8488H166.712V94.3984H165.924V95.7724C165.924 96.0609 166.066 96.2304 166.332 96.2304C166.47 96.2347 166.605 96.1928 166.717 96.1113L166.923 96.6014Z" fill="white"/>
<path d="M187.088 101.63H121.288V120.459H187.088V101.63Z" fill="white"/>
<g opacity="0.5">
<path d="M154.685 111.115L155.312 111.463L155.097 111.834L154.461 111.463V112.169H154.044V111.468L153.412 111.834L153.192 111.463L153.824 111.115L153.192 110.767L153.43 110.378L154.062 110.749V110.048H154.479V110.754L155.115 110.378L155.331 110.754L154.685 111.115Z" fill="black"/>
<path d="M157.094 111.115L157.721 111.463L157.506 111.834L156.87 111.463V112.169H156.453V111.468L155.821 111.834L155.601 111.463L156.233 111.115L155.601 110.767L155.821 110.392L156.453 110.763V110.062H156.87V110.767L157.506 110.392L157.721 110.767L157.094 111.115Z" fill="black"/>
<path d="M159.48 111.115L160.103 111.463L159.892 111.834L159.251 111.463V112.169H158.83V111.468L158.198 111.834L157.978 111.463L158.61 111.115L157.978 110.767L158.198 110.392L158.83 110.763V110.062H159.251V110.767L159.892 110.392L160.103 110.767L159.48 111.115Z" fill="black"/>
<path d="M161.876 111.115L162.498 111.463L162.288 111.834L161.651 111.463V112.169H161.234V111.468L160.602 111.834L160.382 111.463L161.014 111.115L160.382 110.767L160.602 110.392L161.234 110.763V110.062H161.674V110.767L162.311 110.392L162.521 110.767L161.876 111.115Z" fill="black"/>
<path d="M165.677 111.115L166.304 111.463L166.089 111.834L165.453 111.463V112.169H165.036V111.468L164.404 111.834L164.184 111.463L164.816 111.115L164.184 110.767L164.422 110.378L165.054 110.749V110.048H165.471V110.754L166.107 110.378L166.323 110.754L165.677 111.115Z" fill="black"/>
<path d="M168.086 111.115L168.713 111.463L168.498 111.834L167.862 111.463V112.169H167.445V111.468L166.813 111.834L166.593 111.463L167.225 111.115L166.593 110.767L166.813 110.392L167.445 110.763V110.062H167.862V110.767L168.498 110.392L168.713 110.767L168.086 111.115Z" fill="black"/>
<path d="M170.468 111.115L171.095 111.463L170.88 111.834L170.243 111.463V112.169H169.826V111.468L169.194 111.834L168.975 111.463L169.607 111.115L168.975 110.767L169.194 110.392L169.826 110.763V110.062H170.243V110.767L170.88 110.392L171.095 110.767L170.468 111.115Z" fill="black"/>
<path d="M172.868 111.115L173.49 111.463L173.28 111.834L172.639 111.463V112.169H172.222V111.468L171.59 111.834L171.37 111.463L172.002 111.115L171.37 110.767L171.59 110.392L172.222 110.763V110.062H172.666V110.767L173.307 110.392L173.518 110.767L172.868 111.115Z" fill="black"/>
<path d="M176.669 111.115L177.296 111.463L177.081 111.834L176.445 111.463V112.169H176.028V111.468L175.396 111.834L175.176 111.463L175.808 111.115L175.176 110.767L175.414 110.378L176.046 110.749V110.048H176.463V110.754L177.099 110.378L177.315 110.754L176.669 111.115Z" fill="black"/>
<path d="M179.078 111.115L179.705 111.463L179.49 111.834L178.854 111.463V112.169H178.437V111.468L177.805 111.834L177.585 111.463L178.217 111.115L177.585 110.767L177.805 110.392L178.437 110.763V110.062H178.854V110.767L179.49 110.392L179.705 110.767L179.078 111.115Z" fill="black"/>
<path d="M181.46 111.115L182.087 111.463L181.872 111.834L181.235 111.463V112.169H180.818V111.468L180.186 111.834L179.971 111.463L180.599 111.115L179.971 110.767L180.186 110.392L180.818 110.763V110.062H181.235V110.767L181.872 110.392L182.087 110.767L181.46 111.115Z" fill="black"/>
</g>
<path d="M136.791 107.232H127.457C126.766 107.232 126.206 107.791 126.206 108.482V113.827C126.206 114.517 126.766 115.077 127.457 115.077H136.791C137.481 115.077 138.041 114.517 138.041 113.827V108.482C138.041 107.791 137.481 107.232 136.791 107.232Z" fill="#FE7622"/>
<g opacity="0.5">
<path d="M138.041 111.459H126.206V113.415H138.041V111.459Z" fill="black"/>
</g>
<g opacity="0.5">
<path d="M137.089 110.062C137.087 110.178 137.051 110.291 136.985 110.386C136.92 110.482 136.828 110.556 136.721 110.6C136.613 110.644 136.496 110.655 136.382 110.632C136.268 110.609 136.164 110.554 136.082 110.472C135.999 110.39 135.943 110.286 135.919 110.173C135.896 110.06 135.906 109.942 135.949 109.834C135.992 109.726 136.065 109.634 136.161 109.568C136.256 109.501 136.368 109.465 136.484 109.462C136.564 109.459 136.643 109.473 136.717 109.502C136.791 109.532 136.859 109.576 136.915 109.632C136.972 109.688 137.017 109.755 137.046 109.829C137.076 109.903 137.09 109.982 137.089 110.062Z" fill="black"/>
</g>
<path d="M136.319 110.062C136.32 110.179 136.286 110.294 136.221 110.392C136.157 110.49 136.065 110.566 135.957 110.612C135.848 110.657 135.729 110.669 135.614 110.646C135.499 110.624 135.393 110.567 135.311 110.484C135.228 110.401 135.171 110.296 135.149 110.181C135.126 110.066 135.138 109.946 135.183 109.838C135.229 109.73 135.305 109.638 135.403 109.573C135.501 109.509 135.616 109.475 135.733 109.476C135.888 109.476 136.037 109.538 136.147 109.647C136.257 109.757 136.319 109.907 136.319 110.062Z" fill="white"/>
<path d="M169.002 130.983H139.383C135.675 130.983 132.669 133.99 132.669 137.698C132.669 141.406 135.675 144.412 139.383 144.412H169.002C172.71 144.412 175.716 141.406 175.716 137.698C175.716 133.99 172.71 130.983 169.002 130.983Z" fill="#FE7622"/>
<path d="M140.876 137.285C140.851 136.744 140.988 136.208 141.27 135.745C141.552 135.283 141.966 134.915 142.459 134.691C142.952 134.466 143.501 134.394 144.035 134.484C144.569 134.574 145.065 134.822 145.456 135.196C145.848 135.57 146.119 136.053 146.234 136.582C146.349 137.112 146.303 137.663 146.101 138.166C145.9 138.669 145.552 139.1 145.103 139.403C144.654 139.707 144.125 139.869 143.583 139.869C143.233 139.887 142.883 139.833 142.555 139.711C142.227 139.59 141.927 139.402 141.673 139.16C141.42 138.918 141.218 138.627 141.081 138.305C140.944 137.983 140.875 137.636 140.876 137.285ZM145.346 137.285C145.347 136.935 145.244 136.593 145.05 136.302C144.856 136.01 144.58 135.783 144.257 135.648C143.934 135.514 143.578 135.479 143.235 135.547C142.891 135.615 142.576 135.783 142.328 136.031C142.081 136.278 141.912 136.594 141.844 136.937C141.776 137.281 141.812 137.636 141.946 137.96C142.08 138.283 142.308 138.559 142.599 138.753C142.891 138.947 143.233 139.05 143.583 139.049C143.817 139.056 144.049 139.016 144.267 138.93C144.484 138.844 144.682 138.715 144.847 138.549C145.012 138.384 145.142 138.187 145.228 137.969C145.314 137.752 145.354 137.519 145.346 137.285Z" fill="white"/>
<path d="M150.563 139.795L149.537 138.316H148.209V139.782H147.293V134.744H149.363C150.682 134.744 151.502 135.417 151.502 136.53C151.517 136.874 151.42 137.214 151.227 137.499C151.034 137.784 150.755 138 150.43 138.114L151.584 139.768L150.563 139.795ZM149.308 135.568H148.209V137.574H149.308C150.128 137.574 150.549 137.198 150.549 136.566C150.549 135.934 150.119 135.568 149.308 135.568Z" fill="white"/>
<path d="M152.514 134.771H154.712C156.343 134.771 157.46 135.774 157.46 137.285C157.46 138.797 156.352 139.795 154.712 139.795H152.514V134.771ZM154.667 139.008C155.789 139.008 156.499 138.325 156.499 137.285C156.499 136.246 155.775 135.559 154.667 135.559H153.448V139.008H154.667Z" fill="white"/>
<path d="M162.214 139.012V139.795H158.468V134.757H162.132V135.568H159.384V136.873H161.811V137.643H159.384V139.017L162.214 139.012Z" fill="white"/>
<path d="M166.538 139.795L165.512 138.316H164.184V139.782H163.268V134.744H165.338C166.657 134.744 167.477 135.417 167.477 136.53C167.492 136.874 167.395 137.214 167.202 137.499C167.009 137.784 166.73 138 166.405 138.114L167.564 139.768L166.538 139.795ZM165.278 135.568H164.184V137.574H165.278C166.094 137.574 166.52 137.198 166.52 136.566C166.52 135.934 166.094 135.568 165.278 135.568Z" fill="white"/>
<path d="M144.893 44.7924H146.56C147.806 44.7924 148.658 45.5618 148.658 46.716C148.658 47.8702 147.806 48.6396 146.56 48.6396H144.879L144.893 44.7924ZM146.542 48.035C146.724 48.0503 146.908 48.0275 147.081 47.9681C147.254 47.9087 147.413 47.814 147.548 47.6901C147.683 47.5661 147.79 47.4155 147.864 47.2479C147.937 47.0802 147.975 46.8991 147.975 46.716C147.975 46.5329 147.937 46.3518 147.864 46.1841C147.79 46.0165 147.683 45.8659 147.548 45.7419C147.413 45.618 147.254 45.5233 147.081 45.4639C146.908 45.4045 146.724 45.3817 146.542 45.397H145.626V48.035H146.542Z" fill="white"/>
<path d="M152.111 47.3893H149.821C149.865 47.6026 149.986 47.7923 150.161 47.9224C150.336 48.0524 150.552 48.1137 150.769 48.0946C150.917 48.1007 151.065 48.0753 151.202 48.02C151.339 47.9647 151.463 47.8809 151.566 47.774L151.932 48.1999C151.711 48.4236 151.43 48.5791 151.123 48.6478C150.816 48.7165 150.495 48.6956 150.2 48.5875C149.904 48.4795 149.645 48.2889 149.455 48.0383C149.264 47.7877 149.15 47.4878 149.125 47.174C149.119 46.9742 149.154 46.7753 149.229 46.5897C149.303 46.4042 149.415 46.2359 149.557 46.0954C149.699 45.9549 149.869 45.8452 150.055 45.7731C150.242 45.701 150.441 45.6681 150.641 45.6763C150.84 45.669 151.039 45.7034 151.225 45.7774C151.41 45.8514 151.578 45.9634 151.718 46.1061C151.858 46.2489 151.966 46.4192 152.036 46.6063C152.106 46.7933 152.136 46.9929 152.125 47.1923C152.125 47.2427 152.116 47.3251 152.111 47.3893ZM149.821 46.9313H151.484C151.451 46.7345 151.349 46.5557 151.197 46.4267C151.045 46.2978 150.852 46.227 150.652 46.227C150.453 46.227 150.26 46.2978 150.107 46.4267C149.955 46.5557 149.854 46.7345 149.821 46.9313Z" fill="white"/>
<path d="M154.548 48.4793C154.355 48.6157 154.124 48.6849 153.888 48.6762C153.753 48.691 153.617 48.6757 153.489 48.6315C153.362 48.5873 153.245 48.5153 153.148 48.4207C153.051 48.3262 152.977 48.2113 152.93 48.0844C152.883 47.9575 152.864 47.8218 152.876 47.687V46.258H152.395V45.7084H152.876V45.0397H153.563V45.7084H154.346V46.258H153.558V47.6549C153.547 47.7132 153.549 47.7733 153.565 47.8306C153.58 47.8879 153.609 47.9408 153.648 47.9851C153.688 48.0295 153.737 48.0641 153.792 48.0863C153.847 48.1084 153.907 48.1176 153.966 48.1129C154.104 48.1156 154.24 48.0721 154.351 47.9892L154.548 48.4793Z" fill="white"/>
<path d="M157.552 46.9175V48.6396H156.902V48.2824C156.794 48.4198 156.654 48.528 156.494 48.5969C156.334 48.6657 156.159 48.693 155.986 48.6762C155.317 48.6762 154.891 48.3098 154.891 47.7969C154.891 47.2839 155.221 46.9221 156.114 46.9221H156.87V46.8809C156.87 46.4778 156.627 46.2443 156.137 46.2443C155.817 46.2416 155.505 46.3429 155.248 46.5328L154.978 46.0336C155.342 45.783 155.777 45.6561 156.219 45.6718C157.094 45.6718 157.552 46.0748 157.552 46.9175ZM156.865 47.719V47.3801H156.178C155.72 47.3801 155.587 47.5541 155.587 47.7694C155.587 47.9847 155.793 48.177 156.146 48.177C156.301 48.1864 156.455 48.1474 156.588 48.0653C156.72 47.9833 156.823 47.8623 156.883 47.719H156.865Z" fill="white"/>
<path d="M158.358 44.8107C158.358 44.7527 158.371 44.6954 158.395 44.6425C158.418 44.5896 158.453 44.5423 158.496 44.5035C158.539 44.4647 158.59 44.4353 158.645 44.4172C158.7 44.3991 158.758 44.3928 158.816 44.3985C158.873 44.3915 158.93 44.3963 158.984 44.4127C159.039 44.4292 159.089 44.4568 159.132 44.4939C159.176 44.531 159.21 44.5768 159.235 44.6282C159.259 44.6796 159.273 44.7355 159.274 44.7924C159.246 44.8875 159.188 44.9711 159.109 45.0306C159.03 45.09 158.934 45.1222 158.834 45.1222C158.735 45.1222 158.639 45.09 158.56 45.0306C158.48 44.9711 158.422 44.8875 158.395 44.7924L158.358 44.8107ZM158.45 45.7038H159.137V48.6396H158.468L158.45 45.7038Z" fill="white"/>
<path d="M160.039 44.5634H160.726V48.6396H160.039V44.5634Z" fill="white"/>
<path d="M161.294 48.3465L161.555 47.8244C161.863 48.0127 162.216 48.114 162.576 48.1175C163.011 48.1175 163.195 47.9938 163.195 47.7923C163.195 47.2335 161.363 47.7602 161.363 46.5878C161.363 46.0336 161.862 45.6718 162.654 45.6718C163.036 45.6645 163.413 45.751 163.753 45.9237L163.488 46.4458C163.232 46.2961 162.941 46.22 162.645 46.2259C162.228 46.2259 162.031 46.3633 162.031 46.5557C162.031 47.1511 163.863 46.6244 163.863 47.7694C163.863 48.319 163.359 48.6854 162.535 48.6854C162.097 48.6934 161.667 48.5757 161.294 48.3465Z" fill="white"/>
<path opacity="0.6" d="M126.628 36.4293H127.512V35.2477H126.628V36.4293Z" fill="white"/>
<path opacity="0.6" d="M125.185 36.4247H126.069V34.8492H125.185V36.4247Z" fill="white"/>
<path opacity="0.6" d="M123.742 36.4247H124.626V34.4599H123.742V36.4247Z" fill="white"/>
<path opacity="0.6" d="M122.304 36.4247H123.188V34.066H122.304V36.4247Z" fill="white"/>
<path opacity="0.6" d="M182.27 34.8172H181.744V35.9988H182.27V34.8172Z" fill="white"/>
<path opacity="0.6" d="M182.627 36.4293H186.804V34.3866H182.627V36.4293Z" fill="white"/>
<path d="M114.331 120.078L113.914 123.367L106.215 123.353L106.627 120.065L114.331 120.078Z" fill="#B55B52"/>
<path d="M113.781 123.935C113.895 124.466 114.033 125.414 113.717 125.767C113.672 125.822 113.615 125.866 113.549 125.893C113.483 125.92 113.412 125.93 113.341 125.923C113.298 125.922 113.256 125.911 113.219 125.889C113.182 125.867 113.152 125.836 113.131 125.799C112.897 125.4 113.561 124.054 113.634 123.903C113.641 123.887 113.653 123.875 113.668 123.868C113.683 123.86 113.7 123.858 113.717 123.862C113.726 123.862 113.735 123.864 113.743 123.868C113.751 123.872 113.758 123.878 113.764 123.885C113.77 123.892 113.775 123.9 113.778 123.908C113.78 123.917 113.782 123.926 113.781 123.935ZM113.259 125.716V125.744C113.267 125.758 113.279 125.77 113.294 125.778C113.308 125.786 113.325 125.79 113.341 125.79C113.388 125.794 113.436 125.787 113.479 125.77C113.523 125.752 113.562 125.724 113.593 125.689C113.767 125.483 113.795 124.938 113.662 124.21C113.433 124.736 113.167 125.465 113.259 125.716Z" fill="#FE7622"/>
<path d="M113.781 123.935C113.785 123.943 113.788 123.953 113.788 123.962C113.788 123.972 113.785 123.981 113.781 123.99C113.607 124.393 112.902 125.203 112.531 125.149C112.439 125.149 112.334 125.075 112.306 124.86C112.297 124.783 112.304 124.704 112.326 124.629C112.348 124.555 112.385 124.485 112.434 124.425C112.79 124.115 113.234 123.925 113.703 123.88C113.716 123.879 113.729 123.882 113.741 123.888C113.753 123.893 113.764 123.901 113.772 123.912C113.772 123.912 113.781 123.926 113.781 123.935ZM112.48 124.924C112.48 124.988 112.54 124.993 112.554 124.993C112.778 125.025 113.332 124.475 113.57 124.077C113.194 124.121 112.84 124.281 112.558 124.535C112.521 124.579 112.493 124.63 112.476 124.685C112.459 124.74 112.455 124.798 112.462 124.855C112.466 124.879 112.472 124.902 112.48 124.924Z" fill="#FE7622"/>
<path d="M113.323 123.614L113.282 119.996C113.28 119.931 113.301 119.867 113.341 119.815C113.381 119.763 113.438 119.727 113.502 119.712L116.428 118.993C116.498 118.972 116.572 118.967 116.644 118.981C116.716 118.994 116.784 119.024 116.842 119.069C116.9 119.114 116.946 119.172 116.977 119.239C117.008 119.305 117.022 119.378 117.019 119.451C117.019 120.756 116.959 122.657 116.978 124.283C117.001 126.202 116.891 127.42 116.914 129.669C116.914 131.043 115.567 131.437 115.434 130.869C114.839 128.29 114.976 126.61 113.602 124.402C113.439 124.17 113.343 123.897 113.323 123.614Z" fill="#263238"/>
<path opacity="0.5" d="M113.323 123.614L113.282 119.996C113.28 119.931 113.301 119.867 113.341 119.815C113.381 119.763 113.438 119.727 113.502 119.712L116.428 118.993C116.498 118.972 116.572 118.967 116.644 118.981C116.716 118.994 116.784 119.024 116.842 119.069C116.9 119.114 116.946 119.172 116.977 119.239C117.008 119.305 117.022 119.378 117.019 119.451C117.019 120.756 116.959 122.657 116.978 124.283C117.001 126.202 116.891 127.42 116.914 129.669C116.914 131.043 115.567 131.437 115.434 130.869C114.839 128.29 114.976 126.61 113.602 124.402C113.439 124.17 113.343 123.897 113.323 123.614Z" fill="white"/>
<path opacity="0.2" d="M106.215 123.353L110.186 123.358L110.602 120.069L106.632 120.065L106.215 123.353Z" fill="black"/>
<path d="M109.361 125.208L110.103 118.558L107.964 118.338L107.039 125.634L109.361 125.208Z" fill="#263238"/>
<path d="M101.534 69.0618C100.412 70.99 99.2441 72.8449 98.0075 74.6952C96.753 76.5914 95.3888 78.4128 93.9221 80.15C93.7206 80.379 93.5099 80.608 93.2717 80.8507C92.9989 81.1275 92.7082 81.3861 92.4015 81.6248C92.2916 81.7072 92.1954 81.7759 92.0489 81.8675L91.9435 81.9316L91.8061 82.0049L91.6687 82.0736C91.6034 82.1054 91.5361 82.133 91.4672 82.156C90.8945 82.3735 90.2676 82.404 89.6764 82.2431C89.2603 82.1251 88.8724 81.9241 88.536 81.6522C88.3159 81.4786 88.1148 81.282 87.936 81.066C87.4823 80.4846 87.1109 79.8435 86.8323 79.1607C86.5954 78.5997 86.3891 78.0264 86.214 77.4432C85.5657 75.2606 85.1346 73.0192 84.927 70.7518L87.3406 70.1793C88.1605 72.1533 88.9849 74.1777 89.878 76.0097C90.1024 76.4677 90.336 76.8982 90.5741 77.2921C90.7433 77.6084 90.9595 77.8971 91.2153 78.1485C91.2428 78.1485 91.2657 78.1714 91.2153 78.1211C91.0942 78.0201 90.9516 77.9481 90.7985 77.9104C90.4714 77.82 90.1243 77.8328 89.8047 77.947L89.7039 77.9928L89.6535 78.0157H89.6077C89.6077 78.0157 89.7909 77.8234 89.9192 77.6631C90.0474 77.5028 90.2031 77.3196 90.3451 77.1272C90.9359 76.3578 91.5313 75.4876 92.1084 74.6036C92.6855 73.7197 93.2717 72.822 93.8351 71.9152L97.2518 66.4421L101.534 69.0618Z" fill="#B65B52"/>
<path d="M103.279 66.868C104.218 69.8954 98.0807 78.2081 98.0807 78.2081L91.6687 74.1777C92.8165 71.5426 94.2461 69.0396 95.9327 66.7123C98.47 63.3964 102.244 63.5521 103.279 66.868Z" fill="#FE7622"/>
<path opacity="0.7" d="M103.279 66.868C104.218 69.8954 98.0807 78.2081 98.0807 78.2081L91.6687 74.1777C92.8165 71.5426 94.2461 69.0396 95.9327 66.7123C98.47 63.3964 102.244 63.5521 103.279 66.868Z" fill="white"/>
<path opacity="0.2" d="M99.2395 71.0633C97.6365 71.8144 95.9464 74.5578 95.7129 76.7196L98.0807 78.2127C99.546 76.1985 100.859 74.0783 102.01 71.8694C101.511 71.1045 101.076 70.2068 99.2395 71.0633Z" fill="black"/>
<path d="M117.115 62.3246C116.385 66.0682 115.944 69.8625 115.796 73.6739C115.686 76.257 115.695 78.689 115.764 80.8736C115.92 85.9483 116.378 89.7497 116.332 91.0458L98.928 91.4214C94.8839 74.6265 98.1861 64.807 98.1861 64.807C99.5017 64.2985 100.846 63.8672 102.212 63.5154C102.5 63.4421 102.798 63.3735 103.105 63.3048C105.64 62.8441 108.198 62.523 110.767 62.343C111.267 62.3063 111.775 62.2788 112.27 62.2605C114.811 62.1643 117.115 62.3246 117.115 62.3246Z" fill="#FE7622"/>
<path opacity="0.7" d="M115.764 80.8736C115.924 85.9483 116.378 89.7497 116.332 91.0458L98.928 91.4214C94.8839 74.6265 98.1861 64.807 98.1861 64.807C99.5017 64.2985 100.846 63.8672 102.212 63.5154C102.5 63.4421 102.798 63.3735 103.105 63.3048C105.64 62.8444 108.198 62.5233 110.767 62.343C111.267 62.3063 111.775 62.2788 112.27 62.2605C114.821 62.1643 117.124 62.3246 117.124 62.3246C116.545 65.2507 116.154 68.2109 115.952 71.1869C115.888 72.0296 115.842 72.8586 115.805 73.6739C115.75 74.8922 115.727 76.083 115.723 77.2234C115.709 78.5012 115.732 79.7195 115.764 80.8736Z" fill="white"/>
<path d="M106.389 54.8501C106.535 57.305 107.181 61.7201 109.228 62.8651C108.698 63.7953 107.974 64.6003 107.104 65.2255C106.235 65.8506 105.241 66.2812 104.19 66.4879C102.157 66.9459 101.694 65.5719 101.942 64.6559C104.401 63.3826 103.833 61.4499 102.908 59.7553L106.389 54.8501Z" fill="#B55B52"/>
<path opacity="0.2" d="M104.964 56.8607L102.89 59.7736C103.114 60.1658 103.301 60.5783 103.449 61.0056C104.415 60.6163 105.505 59.1736 105.345 58.111C105.294 57.6748 105.165 57.2513 104.964 56.8607Z" fill="black"/>
<path d="M96.0884 50.5174C95.9235 51.841 96.606 54.3738 98.2044 53.215C99.8028 52.0563 96.3724 48.2411 96.0884 50.5174Z" fill="#263238"/>
<path d="M105.418 50.5586C106.201 53.7646 106.819 55.5691 105.734 57.6485C104.099 60.7766 99.7799 60.511 98.0578 57.6164C96.5098 55.0104 95.493 50.2426 98.1769 48.0763C98.7719 47.5957 99.479 47.274 100.232 47.1411C100.985 47.0083 101.76 47.0687 102.483 47.3167C103.207 47.5647 103.855 47.9922 104.369 48.5592C104.882 49.1262 105.243 49.8141 105.418 50.5586Z" fill="#B55B52"/>
<path d="M106.792 46.9404H103.128V49.0381C103.192 48.9923 103.27 48.951 103.334 48.9098C103.398 48.8686 103.705 51.9509 105.491 52.9127C107.79 51.0075 108.344 48.0305 106.792 46.9404Z" fill="#263238"/>
<path d="M107.438 52.7891C107.432 53.6082 107.103 54.392 106.522 54.9692C105.734 55.7203 104.818 55.1386 104.598 54.1264C104.406 53.2104 104.575 51.7265 105.578 51.3784C105.796 51.306 106.029 51.2878 106.255 51.3254C106.482 51.363 106.696 51.4552 106.879 51.5941C107.062 51.733 107.209 51.9144 107.306 52.1226C107.404 52.3308 107.449 52.5595 107.438 52.7891Z" fill="#B55B52"/>
<path d="M100.929 52.8624C101.007 53.1188 100.929 53.3662 100.769 53.4165C100.609 53.4669 100.403 53.302 100.311 53.0456C100.22 52.7891 100.311 52.5463 100.471 52.496C100.632 52.4456 100.852 52.6105 100.929 52.8624Z" fill="#263238"/>
<path d="M98.0395 53.7326C98.1174 53.989 98.0395 54.2364 97.8792 54.2867C97.7189 54.3371 97.5128 54.1677 97.4212 53.9158C97.3296 53.6639 97.4212 53.412 97.5815 53.3616C97.7418 53.3112 97.9617 53.4807 98.0395 53.7326Z" fill="#263238"/>
<path d="M98.9967 53.586C98.9164 54.4335 98.7192 55.2658 98.4105 56.0592C98.6227 56.1243 98.8463 56.1436 99.0666 56.116C99.2868 56.0884 99.4987 56.0144 99.6883 55.8989L98.9967 53.586Z" fill="#A02724"/>
<path d="M101.36 56.4577C101.254 56.5059 101.146 56.5472 101.035 56.5813C101.025 56.5841 101.015 56.5849 101.004 56.5836C100.994 56.5823 100.984 56.579 100.975 56.5739C100.966 56.5688 100.958 56.562 100.952 56.5538C100.946 56.5457 100.941 56.5363 100.939 56.5264C100.935 56.5168 100.934 56.5065 100.934 56.4963C100.935 56.4861 100.938 56.4762 100.943 56.4671C100.947 56.458 100.954 56.4501 100.962 56.4437C100.97 56.4374 100.979 56.4328 100.989 56.4302C101.309 56.3426 101.603 56.1802 101.847 55.9565C102.092 55.7327 102.28 55.4539 102.395 55.1432C102.398 55.1333 102.402 55.124 102.409 55.116C102.415 55.108 102.423 55.1014 102.432 55.0967C102.441 55.0919 102.451 55.0892 102.461 55.0885C102.471 55.0878 102.482 55.0893 102.491 55.0928C102.501 55.0955 102.511 55.1001 102.519 55.1064C102.527 55.1126 102.534 55.1205 102.539 55.1294C102.544 55.1384 102.547 55.1482 102.548 55.1585C102.55 55.1687 102.549 55.1791 102.546 55.189C102.447 55.471 102.29 55.7293 102.086 55.9477C101.882 56.1661 101.635 56.3397 101.36 56.4577Z" fill="#263238"/>
<path d="M101.529 51.667C101.506 51.6802 101.479 51.6872 101.452 51.6872C101.424 51.6872 101.398 51.6802 101.374 51.667C101.218 51.5457 101.035 51.4633 100.84 51.4267C100.646 51.3901 100.446 51.4002 100.256 51.4563C100.217 51.4701 100.173 51.4683 100.135 51.4512C100.097 51.4342 100.066 51.4033 100.05 51.3647C100.043 51.3455 100.039 51.325 100.04 51.3044C100.041 51.2838 100.045 51.2636 100.054 51.2448C100.062 51.2261 100.075 51.2092 100.09 51.1952C100.105 51.1812 100.122 51.1703 100.142 51.1632C100.381 51.0895 100.634 51.074 100.88 51.1178C101.126 51.1616 101.358 51.2635 101.557 51.4151C101.59 51.439 101.612 51.4749 101.619 51.5152C101.626 51.5555 101.617 51.5968 101.594 51.6303C101.576 51.6482 101.554 51.6608 101.529 51.667Z" fill="#263238"/>
<path d="M96.4869 53.128C96.4568 53.135 96.4254 53.135 96.3953 53.128C96.3549 53.1202 96.3188 53.0975 96.2942 53.0645C96.2696 53.0314 96.2583 52.9904 96.2625 52.9494C96.2954 52.7038 96.3871 52.4698 96.5298 52.2673C96.6726 52.0647 96.8621 51.8996 97.0823 51.7861C97.1009 51.7776 97.1211 51.773 97.1415 51.7723C97.162 51.7717 97.1823 51.7751 97.2015 51.7823C97.2206 51.7895 97.2382 51.8004 97.2531 51.8145C97.268 51.8285 97.28 51.8453 97.2884 51.8639C97.2975 51.8825 97.3027 51.9027 97.3036 51.9233C97.3046 51.9439 97.3013 51.9645 97.2941 51.9838C97.2868 52.0031 97.2756 52.0207 97.2612 52.0356C97.2469 52.0504 97.2296 52.0621 97.2105 52.07C97.0379 52.1594 96.8898 52.2896 96.7788 52.4492C96.6679 52.6088 96.5976 52.7931 96.5739 52.986C96.5755 53.0157 96.5681 53.0452 96.5525 53.0706C96.537 53.0959 96.5141 53.116 96.4869 53.128Z" fill="#263238"/>
<path d="M104.511 49.6426C104.445 49.7045 104.373 49.7598 104.296 49.8075C104.091 49.9445 103.856 50.0273 103.61 50.0481C103.365 50.0689 103.119 50.0271 102.894 49.9266C101.978 49.5235 101.566 46.9633 99.0471 48.3923C98.7656 48.3419 98.4756 48.3728 98.2111 48.4815C97.9466 48.5903 97.7187 48.7722 97.554 49.006C96.9266 49.8487 97.522 52.7937 96.0838 52.4456C94.6457 52.0975 94.8793 51.6532 94.8793 51.6532C94.8793 51.6532 95.2869 51.8868 95.5113 51.6761C95.2946 51.5088 95.1345 51.2789 95.0526 51.0177C94.9707 50.7564 94.9709 50.4762 95.0533 50.2151C95.0533 50.2151 95.4152 50.609 95.6442 50.5174C95.3509 49.3287 95.4293 48.0786 95.8686 46.9358C96.5968 44.8565 101.639 45.0809 101.639 45.0809C101.639 45.0809 102.226 43.9955 104.529 44.6229C106.833 45.2504 107.992 47.9434 107.69 49.1526" fill="#263238"/>
<path d="M111.161 125.758C106.819 126.632 103.1 127.251 99.931 127.64C85.4124 129.417 82.3622 126.339 83.553 120.55C85.2018 112.512 98.5525 95.9098 98.5525 95.9098V89.31H101.562L106.21 88.9619L106.311 98.6211L106.412 107.964C106.412 107.964 102.885 111.088 99.7799 114.129C97.0914 116.763 94.719 119.327 95.1999 119.749C95.5617 120.051 97.3571 120.097 99.5875 120.028C104.035 119.891 110.213 119.282 110.213 119.282L111.161 125.758Z" fill="#FE7622"/>
<path opacity="0.2" d="M106.412 107.964C106.412 107.964 102.885 111.088 99.7799 114.129C99.844 107.685 104.717 97.096 104.717 97.096L106.311 98.6211L106.412 107.964Z" fill="black"/>
<path opacity="0.2" d="M111.161 125.758C106.819 126.632 103.1 127.251 99.931 127.64C99.4368 125.134 99.3287 122.567 99.6104 120.028C104.058 119.891 110.236 119.282 110.236 119.282L111.161 125.758Z" fill="black"/>
<path d="M116.14 105.912C115.302 113.666 107.067 156.567 107.067 156.567H101.035L103.545 104.662L101.562 89.31L116.488 88.1925C116.488 88.1925 116.593 89.6443 116.648 91.9664C116.648 92.6351 116.676 93.3725 116.68 94.174C116.72 98.0938 116.539 102.013 116.14 105.912Z" fill="#FE7622"/>
<path d="M101.42 163.153H104.726L105.665 155.496H102.358L101.42 163.153Z" fill="#B55B52"/>
<path opacity="0.2" d="M102.358 155.496H105.665L105.18 159.444H101.873L102.358 155.496Z" fill="black"/>
<path d="M107.502 157.529H100.371L100.394 155.399L107.841 154.969L107.502 157.529Z" fill="#263238"/>
<path d="M100.11 163.346C99.8836 163.363 99.6582 163.305 99.4684 163.181C99.4095 163.13 99.3637 163.065 99.335 162.993C99.3063 162.92 99.2955 162.842 99.3036 162.764C99.304 162.719 99.3165 162.675 99.3399 162.636C99.3632 162.597 99.3966 162.566 99.4364 162.544C99.7982 162.356 100.875 163.002 100.994 163.085C101.007 163.093 101.018 163.106 101.024 163.12C101.031 163.135 101.033 163.151 101.03 163.167C101.027 163.182 101.021 163.195 101.011 163.206C101.001 163.217 100.989 163.226 100.975 163.231C100.692 163.301 100.402 163.34 100.11 163.346ZM99.6104 162.663C99.5773 162.655 99.5428 162.655 99.5097 162.663C99.4937 162.672 99.4806 162.686 99.4717 162.702C99.4628 162.718 99.4585 162.736 99.4593 162.755C99.453 162.808 99.4598 162.861 99.479 162.911C99.4981 162.96 99.5291 163.004 99.5692 163.039C99.9391 163.21 100.361 163.232 100.746 163.098C100.399 162.882 100.013 162.735 99.6104 162.663Z" fill="#FE7622"/>
<path d="M100.952 163.231H100.916C100.572 163.043 99.9036 162.315 99.9723 161.953C99.9821 161.895 100.012 161.842 100.058 161.805C100.103 161.767 100.161 161.746 100.22 161.747C100.34 161.735 100.46 161.772 100.554 161.848C100.939 162.159 101.012 163.117 101.012 163.158C101.014 163.171 101.012 163.185 101.006 163.197C101.001 163.209 100.991 163.22 100.98 163.227C100.971 163.23 100.962 163.231 100.952 163.231ZM100.275 161.889H100.238C100.137 161.889 100.128 161.949 100.123 161.967C100.087 162.187 100.513 162.732 100.856 162.988C100.827 162.611 100.686 162.251 100.453 161.953C100.403 161.911 100.34 161.889 100.275 161.889Z" fill="#FE7622"/>
<path d="M101.218 162.769H105.253C105.319 162.77 105.383 162.793 105.434 162.835C105.486 162.876 105.522 162.933 105.537 162.998L106.219 165.933C106.235 166.005 106.235 166.079 106.218 166.15C106.201 166.222 106.168 166.288 106.122 166.345C106.076 166.402 106.017 166.448 105.951 166.479C105.884 166.51 105.812 166.525 105.739 166.524C104.442 166.524 103.494 166.423 101.859 166.423C100.856 166.423 97.8243 166.529 96.4365 166.529C95.0488 166.529 94.8564 165.155 95.4198 165.031C97.9662 164.477 99.8761 163.708 100.687 162.975C100.831 162.841 101.021 162.768 101.218 162.769Z" fill="#263238"/>
<path opacity="0.5" d="M101.218 162.769H105.253C105.319 162.77 105.383 162.793 105.434 162.835C105.486 162.876 105.522 162.933 105.537 162.998L106.219 165.933C106.235 166.005 106.235 166.079 106.218 166.15C106.201 166.222 106.168 166.288 106.122 166.345C106.076 166.402 106.017 166.448 105.951 166.479C105.884 166.51 105.812 166.525 105.739 166.524C104.442 166.524 103.494 166.423 101.859 166.423C100.856 166.423 97.8243 166.529 96.4365 166.529C95.0488 166.529 94.8564 165.155 95.4198 165.031C97.9662 164.477 99.8761 163.708 100.687 162.975C100.831 162.841 101.021 162.768 101.218 162.769Z" fill="white"/>
<path d="M104.122 66.5016C104.122 66.5016 105.129 67.2894 106.265 68.0359C107.424 67.01 110.089 64.3719 109.549 62.6498C109.28 62.3302 108.91 62.112 108.5 62.0315C107.291 63.7476 105.812 65.257 104.122 66.5016Z" fill="white"/>
<path d="M104.122 66.5016C103.59 67.2199 103.161 68.0093 102.849 68.8466C101.731 68.3886 101.497 65.0131 101.772 64.5688C102.083 64.1997 102.503 63.9384 102.972 63.8223C102.972 63.8223 102.5 66.4879 104.122 66.5016Z" fill="white"/>
<path opacity="0.2" d="M116.68 94.174C116.205 94.4803 115.69 94.7206 115.15 94.8884L113.396 90.9725C114.557 90.9619 115.692 91.3089 116.648 91.9664C116.666 92.6351 116.676 93.3725 116.68 94.174Z" fill="black"/>
<path opacity="0.2" d="M115.943 71.1869C115.879 72.0297 115.833 72.8586 115.796 73.6739C115.741 74.8922 115.718 76.083 115.714 77.2234C114.124 75.1166 114.587 70.8847 114.587 70.8847C115.059 70.8507 115.53 70.9558 115.943 71.1869Z" fill="black"/>
<path d="M119.236 64.7841C120.406 67.0373 121.435 69.3608 122.318 71.7411C122.772 72.9616 123.163 74.2044 123.491 75.4647C123.651 76.115 123.797 76.7791 123.907 77.4844C124.033 78.2563 124.076 79.0393 124.036 79.8202C124.02 80.0566 123.993 80.292 123.953 80.5256C123.926 80.6584 123.907 80.7775 123.871 80.9149L123.816 81.1164L123.765 81.2538C123.637 81.6156 123.509 81.9957 123.367 82.298C123.088 82.9438 122.785 83.5163 122.478 84.0934C121.874 85.2338 121.21 86.3009 120.541 87.3543C119.199 89.4521 117.751 91.4806 116.204 93.432L114.097 92.113L117.188 85.5178C117.701 84.4277 118.187 83.3331 118.636 82.2614C118.856 81.7301 119.062 81.1897 119.222 80.695C119.323 80.434 119.364 80.237 119.428 80.008L119.451 79.9256V79.6325C119.427 79.1896 119.365 78.7497 119.263 78.318C119.158 77.8188 119.011 77.2967 118.846 76.7654C118.508 75.7028 118.104 74.6174 117.665 73.5319C116.79 71.3747 115.782 69.1672 114.77 67.0787L119.236 64.7841Z" fill="#B65B52"/>
<path d="M118.082 62.5491C120.999 63.7948 123.797 72.822 123.797 72.822L116.126 75.4555C114.966 72.9189 114.038 70.2822 113.355 67.5779C112.329 63.2361 114.546 61.0422 118.082 62.5491Z" fill="#FE7622"/>
<path opacity="0.7" d="M118.082 62.5491C120.999 63.7948 123.797 72.822 123.797 72.822L116.126 75.4555C114.966 72.9189 114.038 70.2822 113.355 67.5779C112.329 63.2361 114.546 61.0422 118.082 62.5491Z" fill="white"/>
<path d="M113.044 90.7435C113.044 90.7435 116.25 92.7862 117.019 93.9862C117.019 93.9862 116.502 99.3997 114.331 99.0242C112.16 98.6486 111.395 95.0029 113.044 90.7435Z" fill="#FE7622"/>
<path d="M107.438 71.6312L111.615 71.0541V76.028C111.615 76.028 109.352 77.3287 107.676 76.4219L107.438 71.6312Z" fill="white"/>
<path d="M91.2657 69.9458C91.2803 69.9888 91.2854 70.0344 91.2807 70.0795C91.276 70.1247 91.2617 70.1683 91.2387 70.2074C91.2156 70.2465 91.1844 70.2802 91.1472 70.3062C91.11 70.3322 91.0676 70.3498 91.023 70.358L87.5467 71.0495C87.451 71.064 87.3531 71.045 87.2697 70.9958C87.1863 70.9466 87.1224 70.8701 87.0887 70.7793L84.9499 64.0696C84.9343 64.0242 84.9279 63.9762 84.9313 63.9283C84.9347 63.8805 84.9476 63.8338 84.9694 63.791C84.9912 63.7483 85.0214 63.7104 85.0582 63.6795C85.095 63.6487 85.1376 63.6256 85.1835 63.6116L88.6597 62.92C88.7601 62.9151 88.8594 62.9434 88.9422 63.0005C89.0249 63.0576 89.0866 63.1404 89.1177 63.2361L91.2657 69.9458Z" fill="#263238"/>
<path opacity="0.3" d="M88.7284 63.2681L90.8947 70.0419C90.9133 70.0799 90.9225 70.1218 90.9216 70.1641C90.9207 70.2064 90.9097 70.2479 90.8895 70.2851C90.8693 70.3222 90.8406 70.3541 90.8057 70.3779C90.7707 70.4017 90.7306 70.4169 90.6886 70.4221L87.7391 70.99C87.5421 71.0312 87.1574 70.99 87.0979 70.8022L84.927 64.0101C84.8674 63.8177 85.1697 63.5933 85.385 63.5521L88.3299 62.9613C88.4229 62.9519 88.516 62.9785 88.5901 63.0355C88.6642 63.0926 88.7136 63.1758 88.7284 63.2681Z" fill="white"/>
<path d="M85.0689 72.2403L84.8812 68.874L88.3391 70.2938C88.3391 70.2938 88.3391 73.3075 86.7773 73.2342L85.0689 72.2403Z" fill="#B55B52"/>
<path d="M86.4521 65.9291L89.0123 68.1596L88.3391 70.2938L84.8812 68.874L86.4521 65.9291Z" fill="#B55B52"/>
</svg>
