<svg width="26" height="24" viewBox="0 0 26 24" fill="none" xmlns="http://www.w3.org/2000/svg">
<g clip-path="url(#clip0_7_25)">
<path d="M0.94519 2.41096C0.94519 1.07942 2.02461 0 3.35615 0H22.6438C23.9753 0 25.0548 1.07942 25.0548 2.41096V4.16438C25.0548 5.49592 23.9753 6.57534 22.6438 6.57534H3.35615C2.02461 6.57534 0.94519 5.49592 0.94519 4.16438V2.41096Z" fill="#FE7622"/>
<path d="M0.94519 11.6164C0.94519 10.2849 2.02461 9.20548 3.35615 9.20548H22.6438C23.9753 9.20548 25.0548 10.2849 25.0548 11.6164V21.589C25.0548 22.9205 23.9753 24 22.6438 24H3.35615C2.02461 24 0.94519 22.9205 0.94519 21.589V11.6164Z" fill="#1E1E1E"/>
</g>
<defs>
<clipPath id="clip0_7_25">
<rect width="24.1096" height="24" fill="white" transform="translate(0.94519)"/>
</clipPath>
</defs>
</svg>
